<?xml version="1.0" encoding="utf-8" standalone="no"?>
<!DOCTYPE svg PUBLIC "-//W3C//DTD SVG 1.1//EN"
  "http://www.w3.org/Graphics/SVG/1.1/DTD/svg11.dtd">
<svg xmlns:xlink="http://www.w3.org/1999/xlink" width="460.8pt" height="345.6pt" viewBox="0 0 460.8 345.6" xmlns="http://www.w3.org/2000/svg" version="1.1">
 <metadata>
  <rdf:RDF xmlns:dc="http://purl.org/dc/elements/1.1/" xmlns:cc="http://creativecommons.org/ns#" xmlns:rdf="http://www.w3.org/1999/02/22-rdf-syntax-ns#">
   <cc:Work>
    <dc:type rdf:resource="http://purl.org/dc/dcmitype/StillImage"/>
    <dc:date>2025-09-26T12:13:30.155011</dc:date>
    <dc:format>image/svg+xml</dc:format>
    <dc:creator>
     <cc:Agent>
      <dc:title>Matplotlib v3.9.1, https://matplotlib.org/</dc:title>
     </cc:Agent>
    </dc:creator>
   </cc:Work>
  </rdf:RDF>
 </metadata>
 <defs>
  <style type="text/css">*{stroke-linejoin: round; stroke-linecap: butt}</style>
 </defs>
 <g id="figure_1">
  <g id="patch_1">
   <path d="M 0 345.6 
L 460.8 345.6 
L 460.8 0 
L 0 0 
z
" style="fill: #ffffff"/>
  </g>
  <g id="axes_1">
   <g id="patch_2">
    <path d="M 57.6 307.584 
L 414.72 307.584 
L 414.72 41.472 
L 57.6 41.472 
z
" style="fill: #ffffff"/>
   </g>
   <g id="matplotlib.axis_1">
    <g id="xtick_1">
     <g id="line2d_1">
      <defs>
       <path id="mf3af6392f4" d="M 0 0 
L 0 3.5 
" style="stroke: #000000; stroke-width: 0.8"/>
      </defs>
      <g>
       <use xlink:href="#mf3af6392f4" x="73.832727" y="307.584" style="stroke: #000000; stroke-width: 0.8"/>
      </g>
     </g>
     <g id="text_1">
      <!-- 0 -->
      <g transform="translate(71.332727 321.459) scale(0.1 -0.1)">
       <defs>
        <path id="SimHei-30" d="M 225 2537 
Q 250 3200 412 3587 
Q 575 3975 875 4225 
Q 1175 4475 1612 4475 
Q 2050 4475 2375 4112 
Q 2700 3750 2800 3200 
Q 2900 2650 2862 1937 
Q 2825 1225 2612 775 
Q 2400 325 1975 150 
Q 1550 -25 1125 187 
Q 700 400 525 750 
Q 350 1100 275 1487 
Q 200 1875 225 2537 
z
M 750 2687 
Q 675 2000 800 1462 
Q 925 925 1212 700 
Q 1500 475 1800 612 
Q 2100 750 2237 1162 
Q 2375 1575 2375 2062 
Q 2375 2550 2337 2950 
Q 2300 3350 2112 3675 
Q 1925 4000 1612 4012 
Q 1300 4025 1062 3700 
Q 825 3375 750 2687 
z
" transform="scale(0.015625)"/>
       </defs>
       <use xlink:href="#SimHei-30"/>
      </g>
     </g>
    </g>
    <g id="xtick_2">
     <g id="line2d_2">
      <g>
       <use xlink:href="#mf3af6392f4" x="138.763636" y="307.584" style="stroke: #000000; stroke-width: 0.8"/>
      </g>
     </g>
     <g id="text_2">
      <!-- 100 -->
      <g transform="translate(131.263636 321.459) scale(0.1 -0.1)">
       <defs>
        <path id="SimHei-31" d="M 1400 3600 
Q 1075 3275 575 2975 
L 575 3450 
Q 1200 3875 1600 4450 
L 1900 4450 
L 1900 150 
L 1400 150 
L 1400 3600 
z
" transform="scale(0.015625)"/>
       </defs>
       <use xlink:href="#SimHei-31"/>
       <use xlink:href="#SimHei-30" x="50"/>
       <use xlink:href="#SimHei-30" x="100"/>
      </g>
     </g>
    </g>
    <g id="xtick_3">
     <g id="line2d_3">
      <g>
       <use xlink:href="#mf3af6392f4" x="203.694545" y="307.584" style="stroke: #000000; stroke-width: 0.8"/>
      </g>
     </g>
     <g id="text_3">
      <!-- 200 -->
      <g transform="translate(196.194545 321.459) scale(0.1 -0.1)">
       <defs>
        <path id="SimHei-32" d="M 300 250 
Q 325 625 650 925 
Q 975 1225 1475 1862 
Q 1975 2500 2125 2850 
Q 2275 3200 2237 3450 
Q 2200 3700 2000 3862 
Q 1800 4025 1537 4000 
Q 1275 3975 1037 3800 
Q 800 3625 675 3275 
L 200 3350 
Q 400 3925 712 4187 
Q 1025 4450 1450 4475 
Q 1700 4500 1900 4462 
Q 2100 4425 2312 4287 
Q 2525 4150 2662 3875 
Q 2800 3600 2762 3212 
Q 2725 2825 2375 2287 
Q 2025 1750 1025 600 
L 2825 600 
L 2825 150 
L 300 150 
L 300 250 
z
" transform="scale(0.015625)"/>
       </defs>
       <use xlink:href="#SimHei-32"/>
       <use xlink:href="#SimHei-30" x="50"/>
       <use xlink:href="#SimHei-30" x="100"/>
      </g>
     </g>
    </g>
    <g id="xtick_4">
     <g id="line2d_4">
      <g>
       <use xlink:href="#mf3af6392f4" x="268.625455" y="307.584" style="stroke: #000000; stroke-width: 0.8"/>
      </g>
     </g>
     <g id="text_4">
      <!-- 300 -->
      <g transform="translate(261.125455 321.459) scale(0.1 -0.1)">
       <defs>
        <path id="SimHei-33" d="M 250 1225 
L 700 1300 
Q 800 975 1025 762 
Q 1250 550 1587 562 
Q 1925 575 2125 837 
Q 2325 1100 2300 1437 
Q 2275 1775 2037 1962 
Q 1800 2150 1275 2225 
L 1275 2550 
Q 1800 2600 2037 2825 
Q 2275 3050 2250 3412 
Q 2225 3775 1925 3937 
Q 1625 4100 1287 3975 
Q 950 3850 750 3275 
L 300 3350 
Q 450 3800 712 4100 
Q 975 4400 1425 4450 
Q 1875 4500 2212 4337 
Q 2550 4175 2687 3837 
Q 2825 3500 2725 3100 
Q 2625 2700 2150 2400 
Q 2500 2250 2687 1950 
Q 2875 1650 2812 1162 
Q 2750 675 2375 375 
Q 2000 75 1525 87 
Q 1050 100 700 387 
Q 350 675 250 1225 
z
" transform="scale(0.015625)"/>
       </defs>
       <use xlink:href="#SimHei-33"/>
       <use xlink:href="#SimHei-30" x="50"/>
       <use xlink:href="#SimHei-30" x="100"/>
      </g>
     </g>
    </g>
    <g id="xtick_5">
     <g id="line2d_5">
      <g>
       <use xlink:href="#mf3af6392f4" x="333.556364" y="307.584" style="stroke: #000000; stroke-width: 0.8"/>
      </g>
     </g>
     <g id="text_5">
      <!-- 400 -->
      <g transform="translate(326.056364 321.459) scale(0.1 -0.1)">
       <defs>
        <path id="SimHei-34" d="M 2000 1100 
L 75 1100 
L 75 1525 
L 2100 4450 
L 2475 4450 
L 2475 1525 
L 3075 1525 
L 3075 1100 
L 2475 1100 
L 2475 150 
L 2000 150 
L 2000 1100 
z
M 2000 1525 
L 2000 3500 
L 600 1525 
L 2000 1525 
z
" transform="scale(0.015625)"/>
       </defs>
       <use xlink:href="#SimHei-34"/>
       <use xlink:href="#SimHei-30" x="50"/>
       <use xlink:href="#SimHei-30" x="100"/>
      </g>
     </g>
    </g>
    <g id="xtick_6">
     <g id="line2d_6">
      <g>
       <use xlink:href="#mf3af6392f4" x="398.487273" y="307.584" style="stroke: #000000; stroke-width: 0.8"/>
      </g>
     </g>
     <g id="text_6">
      <!-- 500 -->
      <g transform="translate(390.987273 321.459) scale(0.1 -0.1)">
       <defs>
        <path id="SimHei-35" d="M 550 1325 
Q 725 650 1150 575 
Q 1575 500 1837 662 
Q 2100 825 2212 1087 
Q 2325 1350 2312 1675 
Q 2300 2000 2137 2225 
Q 1975 2450 1725 2525 
Q 1475 2600 1162 2525 
Q 850 2450 650 2175 
L 225 2225 
Q 275 2375 700 4375 
L 2675 4375 
L 2675 3925 
L 1075 3925 
Q 950 3250 825 2850 
Q 1200 3025 1525 3012 
Q 1850 3000 2150 2862 
Q 2450 2725 2587 2487 
Q 2725 2250 2787 2012 
Q 2850 1775 2837 1500 
Q 2825 1225 2725 937 
Q 2625 650 2425 462 
Q 2225 275 1937 162 
Q 1650 50 1275 75 
Q 900 100 562 350 
Q 225 600 100 1200 
L 550 1325 
z
" transform="scale(0.015625)"/>
       </defs>
       <use xlink:href="#SimHei-35"/>
       <use xlink:href="#SimHei-30" x="50"/>
       <use xlink:href="#SimHei-30" x="100"/>
      </g>
     </g>
    </g>
    <g id="text_7">
     <!-- 经过的时间 Elapsed Time (min) -->
     <g transform="translate(163.66 334.99025) scale(0.1 -0.1)">
      <defs>
       <path id="SimHei-7ecf" d="M 2025 4750 
Q 1875 4550 1650 4175 
Q 1425 3800 925 3050 
Q 1100 3050 1900 3100 
Q 2175 3500 2375 3925 
Q 2575 3725 2850 3625 
Q 2600 3325 2250 2850 
Q 1900 2375 1200 1525 
Q 2175 1650 2600 1750 
Q 2575 1600 2575 1325 
Q 2350 1275 1750 1200 
Q 1150 1125 625 1000 
Q 600 1175 450 1450 
Q 725 1575 1012 1900 
Q 1300 2225 1625 2700 
Q 1350 2700 1037 2662 
Q 725 2625 525 2575 
Q 475 2750 325 3025 
Q 600 3200 950 3800 
Q 1300 4400 1525 5025 
Q 1700 4875 2025 4750 
z
M 4925 1875 
Q 5325 1875 5675 1900 
L 5675 1450 
Q 5350 1475 4950 1475 
L 4550 1475 
L 4550 0 
L 5275 0 
Q 5625 0 6025 25 
L 6025 -425 
Q 5625 -400 5275 -400 
L 3325 -400 
Q 3000 -400 2475 -425 
L 2475 25 
Q 3000 0 3325 0 
L 4075 0 
L 4075 1475 
L 3725 1475 
Q 3300 1475 2900 1450 
L 2900 1900 
Q 3300 1875 3725 1875 
L 4925 1875 
z
M 5500 4650 
Q 5375 4400 5175 4100 
Q 4975 3800 4650 3425 
Q 5750 2700 6100 2475 
Q 5900 2275 5725 2050 
Q 5400 2375 4400 3125 
Q 4075 2825 3737 2587 
Q 3400 2350 2825 2000 
Q 2675 2250 2475 2425 
Q 2900 2575 3237 2775 
Q 3575 2975 4025 3400 
Q 4475 3825 4750 4250 
L 3675 4250 
Q 3225 4250 2825 4225 
L 2825 4675 
Q 3225 4650 3675 4650 
L 5500 4650 
z
M 2650 650 
Q 2650 500 2675 225 
Q 2225 150 1637 25 
Q 1050 -100 575 -225 
Q 450 75 350 300 
Q 1050 375 1400 437 
Q 1750 500 2650 650 
z
" transform="scale(0.015625)"/>
       <path id="SimHei-8fc7" d="M 250 -200 
Q 1025 475 1275 650 
L 1275 2475 
Q 675 2475 400 2450 
L 400 2950 
Q 625 2900 1325 2900 
L 1800 2900 
Q 1775 2525 1775 2150 
L 1775 600 
Q 2500 -25 3912 -37 
Q 5325 -50 6150 75 
Q 6000 -175 5925 -550 
L 4425 -550 
Q 3800 -550 3275 -512 
Q 2750 -475 2387 -300 
Q 2025 -125 1750 75 
Q 1475 275 1237 37 
Q 1000 -200 700 -625 
Q 550 -375 250 -200 
z
M 3625 850 
Q 4200 825 4350 875 
Q 4500 925 4500 1300 
L 4500 3575 
L 2875 3575 
Q 2600 3575 2275 3550 
L 2275 4025 
Q 2600 4000 3075 4000 
L 4500 4000 
Q 4500 4650 4450 5125 
L 5025 5125 
Q 5000 4800 5000 4000 
Q 5525 4000 5950 4025 
L 5950 3550 
Q 5550 3575 5000 3575 
L 5000 1100 
Q 5000 525 4662 412 
Q 4325 300 3825 275 
Q 3775 550 3625 850 
z
M 3125 1600 
Q 2900 2275 2575 2850 
Q 2800 2950 3050 3125 
Q 3500 2225 3625 1875 
Q 3450 1775 3125 1600 
z
M 1150 4975 
Q 1400 4675 1925 3875 
Q 1675 3725 1450 3550 
Q 950 4400 700 4625 
Q 925 4750 1150 4975 
z
" transform="scale(0.015625)"/>
       <path id="SimHei-7684" d="M 2100 4975 
Q 1975 4750 1750 3950 
L 2875 3950 
Q 2850 3525 2850 2875 
L 2850 675 
Q 2850 300 2875 -400 
L 2375 -400 
L 2375 100 
L 1100 100 
L 1100 -450 
L 600 -450 
Q 625 350 625 550 
L 625 2850 
Q 625 3525 600 3950 
L 1325 3950 
Q 1450 4525 1525 5150 
Q 1875 5025 2100 4975 
z
M 5825 3075 
Q 5800 1550 5700 175 
Q 5650 -275 5225 -425 
Q 4800 -575 4275 -625 
Q 4250 -350 4050 -50 
Q 4550 -75 4837 -25 
Q 5125 25 5200 200 
Q 5275 375 5312 1225 
Q 5350 2075 5375 3600 
L 3925 3600 
Q 3725 3125 3350 2475 
Q 3175 2650 2925 2750 
Q 3150 3050 3350 3475 
Q 3550 3900 3700 4400 
Q 3850 4900 3875 5175 
Q 4225 5025 4475 4950 
Q 4350 4750 4262 4512 
Q 4175 4275 4075 4050 
L 5850 4050 
Q 5825 3525 5825 3075 
z
M 2375 525 
L 2375 1850 
L 1100 1850 
L 1100 525 
L 2375 525 
z
M 2375 2275 
L 2375 3525 
L 1100 3525 
L 1100 2275 
L 2375 2275 
z
M 4350 2050 
Q 4500 1750 4700 1275 
Q 4525 1200 4225 1025 
Q 4050 1500 3900 1837 
Q 3750 2175 3600 2400 
Q 3775 2500 4050 2650 
L 4350 2050 
z
" transform="scale(0.015625)"/>
       <path id="SimHei-65f6" d="M 2525 4575 
Q 2500 3675 2500 2400 
Q 2500 1125 2525 400 
L 2000 400 
L 2000 875 
L 1000 875 
L 1000 50 
L 475 50 
Q 500 1200 500 2350 
Q 500 3525 475 4575 
L 2525 4575 
z
M 4875 3825 
Q 4875 4575 4850 5225 
L 5400 5225 
Q 5375 4575 5375 3825 
Q 5750 3825 6175 3850 
L 6175 3375 
Q 5750 3400 5375 3400 
L 5375 50 
Q 5375 -325 5075 -425 
Q 4775 -525 4300 -575 
Q 4300 -275 4025 0 
Q 4500 -50 4687 -25 
Q 4875 0 4875 300 
L 4875 3400 
Q 3625 3400 2775 3375 
L 2775 3850 
Q 3575 3825 4875 3825 
z
M 2000 1300 
L 2000 2550 
L 1000 2550 
L 1000 1300 
L 2000 1300 
z
M 2000 2975 
L 2000 4150 
L 1000 4150 
L 1000 2975 
L 2000 2975 
z
M 3550 2725 
Q 3875 2200 4175 1600 
Q 3925 1525 3650 1375 
Q 3450 1975 3075 2500 
Q 3300 2600 3550 2725 
z
" transform="scale(0.015625)"/>
       <path id="SimHei-95f4" d="M 4450 3550 
Q 4425 3075 4425 2725 
L 4425 1400 
Q 4425 1075 4450 625 
L 1925 625 
Q 1950 1075 1950 1425 
L 1950 2725 
Q 1950 3075 1925 3550 
L 4450 3550 
z
M 5800 4875 
Q 5775 4400 5775 3925 
L 5775 250 
Q 5800 -325 5462 -450 
Q 5125 -575 4725 -625 
Q 4700 -325 4525 -25 
Q 5000 -50 5137 25 
Q 5275 100 5275 350 
L 5275 4450 
L 3775 4450 
Q 3175 4450 2650 4425 
L 2650 4900 
Q 3175 4875 3775 4875 
L 5800 4875 
z
M 550 -525 
Q 600 -25 600 525 
L 600 3150 
Q 600 3675 550 4025 
L 1125 4025 
Q 1100 3650 1100 3300 
L 1100 500 
Q 1100 0 1125 -525 
L 550 -525 
z
M 3950 1025 
L 3950 1950 
L 2425 1950 
L 2425 1025 
L 3950 1025 
z
M 3950 2350 
L 3950 3150 
L 2425 3150 
L 2425 2350 
L 3950 2350 
z
M 1525 5300 
Q 1750 5000 2225 4350 
Q 1950 4225 1700 4075 
Q 1450 4575 1075 5025 
Q 1350 5225 1525 5300 
z
" transform="scale(0.015625)"/>
       <path id="SimHei-20" transform="scale(0.015625)"/>
       <path id="SimHei-45" d="M 2900 125 
L 350 125 
L 350 4400 
L 2775 4400 
L 2775 3925 
L 925 3925 
L 925 2600 
L 2625 2600 
L 2625 2125 
L 925 2125 
L 925 600 
L 2900 600 
L 2900 125 
z
" transform="scale(0.015625)"/>
       <path id="SimHei-6c" d="M 1825 125 
L 1325 125 
L 1325 4400 
L 1825 4400 
L 1825 125 
z
" transform="scale(0.015625)"/>
       <path id="SimHei-61" d="M 2875 125 
L 2275 125 
Q 2225 175 2200 262 
Q 2175 350 2175 475 
Q 2000 275 1750 175 
Q 1500 75 1225 75 
Q 825 75 550 275 
Q 275 475 275 850 
Q 275 1225 525 1450 
Q 775 1675 1300 1750 
Q 1650 1800 1912 1875 
Q 2175 1950 2175 2075 
Q 2175 2225 2062 2375 
Q 1950 2525 1575 2525 
Q 1275 2525 1137 2412 
Q 1000 2300 950 2100 
L 400 2100 
Q 450 2500 762 2737 
Q 1075 2975 1575 2975 
Q 2125 2975 2400 2725 
Q 2675 2475 2675 2025 
L 2675 650 
Q 2675 500 2725 375 
Q 2775 250 2875 125 
z
M 2175 1050 
L 2175 1550 
Q 2025 1500 1887 1462 
Q 1750 1425 1425 1375 
Q 1050 1325 937 1200 
Q 825 1075 825 900 
Q 825 750 937 637 
Q 1050 525 1275 525 
Q 1500 525 1762 650 
Q 2025 775 2175 1050 
z
" transform="scale(0.015625)"/>
       <path id="SimHei-70" d="M 2825 1525 
Q 2825 800 2475 425 
Q 2125 50 1625 50 
Q 1350 50 1150 162 
Q 950 275 800 500 
L 800 -800 
L 300 -800 
L 300 2925 
L 800 2925 
L 800 2550 
Q 950 2775 1150 2875 
Q 1350 2975 1625 2975 
Q 2125 2975 2475 2612 
Q 2825 2250 2825 1525 
z
M 2275 1525 
Q 2275 2000 2087 2262 
Q 1900 2525 1525 2525 
Q 1225 2525 1012 2262 
Q 800 2000 800 1525 
Q 800 1050 1012 775 
Q 1225 500 1525 500 
Q 1900 500 2087 775 
Q 2275 1050 2275 1525 
z
" transform="scale(0.015625)"/>
       <path id="SimHei-73" d="M 2750 900 
Q 2750 500 2437 287 
Q 2125 75 1650 75 
Q 1050 75 725 312 
Q 400 550 400 1000 
L 900 1000 
Q 900 700 1112 600 
Q 1325 500 1625 500 
Q 1925 500 2075 612 
Q 2225 725 2225 900 
Q 2225 1025 2100 1150 
Q 1975 1275 1475 1350 
Q 900 1425 687 1637 
Q 475 1850 475 2200 
Q 475 2500 762 2737 
Q 1050 2975 1600 2975 
Q 2100 2975 2387 2750 
Q 2675 2525 2675 2150 
L 2175 2150 
Q 2175 2375 2012 2462 
Q 1850 2550 1600 2550 
Q 1275 2550 1137 2437 
Q 1000 2325 1000 2175 
Q 1000 2000 1125 1900 
Q 1250 1800 1650 1750 
Q 2300 1650 2525 1437 
Q 2750 1225 2750 900 
z
" transform="scale(0.015625)"/>
       <path id="SimHei-65" d="M 2850 1075 
Q 2800 625 2450 350 
Q 2100 75 1625 75 
Q 1025 75 637 462 
Q 250 850 250 1525 
Q 250 2200 637 2587 
Q 1025 2975 1625 2975 
Q 2150 2975 2487 2637 
Q 2825 2300 2825 1525 
L 800 1525 
Q 800 975 1037 750 
Q 1275 525 1625 525 
Q 1900 525 2075 662 
Q 2250 800 2300 1075 
L 2850 1075 
z
M 2250 1925 
Q 2200 2275 2025 2412 
Q 1850 2550 1575 2550 
Q 1325 2550 1125 2412 
Q 925 2275 825 1925 
L 2250 1925 
z
" transform="scale(0.015625)"/>
       <path id="SimHei-64" d="M 2750 125 
L 2250 125 
L 2250 500 
Q 2100 275 1900 175 
Q 1700 75 1425 75 
Q 925 75 575 437 
Q 225 800 225 1525 
Q 225 2250 575 2625 
Q 925 3000 1425 3000 
Q 1700 3000 1900 2887 
Q 2100 2775 2250 2550 
L 2250 4400 
L 2750 4400 
L 2750 125 
z
M 2250 1525 
Q 2250 2000 2037 2275 
Q 1825 2550 1525 2550 
Q 1150 2550 962 2275 
Q 775 2000 775 1525 
Q 775 1050 962 787 
Q 1150 525 1525 525 
Q 1825 525 2037 787 
Q 2250 1050 2250 1525 
z
" transform="scale(0.015625)"/>
       <path id="SimHei-54" d="M 2850 3925 
L 1850 3925 
L 1850 125 
L 1275 125 
L 1275 3925 
L 275 3925 
L 275 4400 
L 2850 4400 
L 2850 3925 
z
" transform="scale(0.015625)"/>
       <path id="SimHei-69" d="M 1800 3725 
L 1300 3725 
L 1300 4375 
L 1800 4375 
L 1800 3725 
z
M 1800 125 
L 1300 125 
L 1300 2925 
L 1800 2925 
L 1800 125 
z
" transform="scale(0.015625)"/>
       <path id="SimHei-6d" d="M 3050 125 
L 2550 125 
L 2550 2150 
Q 2550 2300 2500 2400 
Q 2450 2500 2300 2500 
Q 2125 2500 1975 2312 
Q 1825 2125 1825 1825 
L 1825 125 
L 1325 125 
L 1325 2150 
Q 1325 2300 1275 2400 
Q 1225 2500 1075 2500 
Q 900 2500 750 2312 
Q 600 2125 600 1825 
L 600 125 
L 100 125 
L 100 2925 
L 600 2925 
L 600 2550 
Q 725 2750 900 2862 
Q 1075 2975 1275 2975 
Q 1475 2975 1612 2862 
Q 1750 2750 1800 2550 
Q 1925 2750 2087 2862 
Q 2250 2975 2450 2975 
Q 2750 2975 2900 2812 
Q 3050 2650 3050 2350 
L 3050 125 
z
" transform="scale(0.015625)"/>
       <path id="SimHei-28" d="M 2975 -200 
L 2700 -475 
Q 2075 125 1762 775 
Q 1450 1425 1450 2250 
Q 1450 3075 1762 3725 
Q 2075 4375 2700 5000 
L 2975 4725 
Q 2400 4175 2112 3587 
Q 1825 3000 1825 2250 
Q 1825 1500 2112 912 
Q 2400 325 2975 -200 
z
" transform="scale(0.015625)"/>
       <path id="SimHei-6e" d="M 2800 125 
L 2300 125 
L 2300 1925 
Q 2300 2225 2150 2400 
Q 2000 2575 1750 2575 
Q 1425 2575 1137 2237 
Q 850 1900 850 1400 
L 850 125 
L 350 125 
L 350 2925 
L 850 2925 
L 850 2400 
Q 1050 2675 1287 2825 
Q 1525 2975 1900 2975 
Q 2350 2975 2575 2725 
Q 2800 2475 2800 2100 
L 2800 125 
z
" transform="scale(0.015625)"/>
       <path id="SimHei-29" d="M 1675 2250 
Q 1675 1425 1362 775 
Q 1050 125 425 -475 
L 150 -200 
Q 725 325 1012 912 
Q 1300 1500 1300 2250 
Q 1300 3000 1012 3587 
Q 725 4175 150 4725 
L 425 5000 
Q 1050 4375 1362 3725 
Q 1675 3075 1675 2250 
z
" transform="scale(0.015625)"/>
      </defs>
      <use xlink:href="#SimHei-7ecf"/>
      <use xlink:href="#SimHei-8fc7" x="100"/>
      <use xlink:href="#SimHei-7684" x="200"/>
      <use xlink:href="#SimHei-65f6" x="300"/>
      <use xlink:href="#SimHei-95f4" x="400"/>
      <use xlink:href="#SimHei-20" x="500"/>
      <use xlink:href="#SimHei-45" x="550"/>
      <use xlink:href="#SimHei-6c" x="600"/>
      <use xlink:href="#SimHei-61" x="650"/>
      <use xlink:href="#SimHei-70" x="700"/>
      <use xlink:href="#SimHei-73" x="750"/>
      <use xlink:href="#SimHei-65" x="800"/>
      <use xlink:href="#SimHei-64" x="850"/>
      <use xlink:href="#SimHei-20" x="900"/>
      <use xlink:href="#SimHei-54" x="950"/>
      <use xlink:href="#SimHei-69" x="1000"/>
      <use xlink:href="#SimHei-6d" x="1050"/>
      <use xlink:href="#SimHei-65" x="1100"/>
      <use xlink:href="#SimHei-20" x="1150"/>
      <use xlink:href="#SimHei-28" x="1200"/>
      <use xlink:href="#SimHei-6d" x="1250"/>
      <use xlink:href="#SimHei-69" x="1300"/>
      <use xlink:href="#SimHei-6e" x="1350"/>
      <use xlink:href="#SimHei-29" x="1400"/>
     </g>
    </g>
   </g>
   <g id="matplotlib.axis_2">
    <g id="ytick_1">
     <g id="line2d_7">
      <defs>
       <path id="mca3c9dbd66" d="M 0 0 
L -3.5 0 
" style="stroke: #000000; stroke-width: 0.8"/>
      </defs>
      <g>
       <use xlink:href="#mca3c9dbd66" x="57.6" y="290.309227" style="stroke: #000000; stroke-width: 0.8"/>
      </g>
     </g>
     <g id="text_8">
      <!-- 20 -->
      <g transform="translate(40.6 293.746727) scale(0.1 -0.1)">
       <use xlink:href="#SimHei-32"/>
       <use xlink:href="#SimHei-30" x="50"/>
      </g>
     </g>
    </g>
    <g id="ytick_2">
     <g id="line2d_8">
      <g>
       <use xlink:href="#mca3c9dbd66" x="57.6" y="235.642286" style="stroke: #000000; stroke-width: 0.8"/>
      </g>
     </g>
     <g id="text_9">
      <!-- 25 -->
      <g transform="translate(40.6 239.079786) scale(0.1 -0.1)">
       <use xlink:href="#SimHei-32"/>
       <use xlink:href="#SimHei-35" x="50"/>
      </g>
     </g>
    </g>
    <g id="ytick_3">
     <g id="line2d_9">
      <g>
       <use xlink:href="#mca3c9dbd66" x="57.6" y="180.975345" style="stroke: #000000; stroke-width: 0.8"/>
      </g>
     </g>
     <g id="text_10">
      <!-- 30 -->
      <g transform="translate(40.6 184.412845) scale(0.1 -0.1)">
       <use xlink:href="#SimHei-33"/>
       <use xlink:href="#SimHei-30" x="50"/>
      </g>
     </g>
    </g>
    <g id="ytick_4">
     <g id="line2d_10">
      <g>
       <use xlink:href="#mca3c9dbd66" x="57.6" y="126.308405" style="stroke: #000000; stroke-width: 0.8"/>
      </g>
     </g>
     <g id="text_11">
      <!-- 35 -->
      <g transform="translate(40.6 129.745905) scale(0.1 -0.1)">
       <use xlink:href="#SimHei-33"/>
       <use xlink:href="#SimHei-35" x="50"/>
      </g>
     </g>
    </g>
    <g id="ytick_5">
     <g id="line2d_11">
      <g>
       <use xlink:href="#mca3c9dbd66" x="57.6" y="71.641464" style="stroke: #000000; stroke-width: 0.8"/>
      </g>
     </g>
     <g id="text_12">
      <!-- 40 -->
      <g transform="translate(40.6 75.078964) scale(0.1 -0.1)">
       <use xlink:href="#SimHei-34"/>
       <use xlink:href="#SimHei-30" x="50"/>
      </g>
     </g>
    </g>
    <g id="text_13">
     <!-- 股票价格 Stock Price ($) -->
     <g transform="translate(35.35 234.528) rotate(-90) scale(0.1 -0.1)">
      <defs>
       <path id="SimHei-80a1" d="M 1575 50 
Q 1925 25 2100 50 
Q 2275 75 2275 450 
L 2275 1625 
L 1325 1625 
Q 1250 900 1125 437 
Q 1000 -25 750 -525 
Q 550 -325 225 -250 
Q 550 150 687 762 
Q 825 1375 837 2150 
Q 850 2925 850 3725 
Q 850 4525 825 4900 
L 2750 4900 
Q 2725 4400 2725 3900 
L 2725 225 
Q 2725 -250 2512 -350 
Q 2300 -450 1750 -550 
Q 1700 -225 1575 50 
z
M 5225 -275 
Q 4950 -150 4450 275 
Q 4200 25 3875 -212 
Q 3550 -450 3100 -700 
Q 2925 -375 2725 -225 
Q 3250 -50 3550 137 
Q 3850 325 4100 600 
Q 3825 950 3625 1375 
Q 3425 1750 3325 2150 
Q 3225 2150 3125 2150 
L 3125 2600 
Q 3550 2575 3950 2575 
L 5725 2575 
Q 5650 2200 5375 1600 
Q 5100 1000 4775 600 
Q 5025 425 5387 237 
Q 5750 50 6200 -50 
Q 5950 -250 5850 -600 
L 5225 -275 
z
M 5325 3750 
Q 5300 3425 5600 3425 
L 6150 3450 
Q 6050 3225 6025 3000 
L 5400 3000 
Q 4825 3000 4825 3450 
L 4825 4500 
L 4000 4500 
Q 4000 3900 3862 3512 
Q 3725 3125 3275 2750 
Q 3150 2950 2900 3125 
Q 3425 3450 3475 3950 
Q 3525 4450 3500 4900 
L 5350 4900 
Q 5325 4675 5325 4375 
L 5325 3750 
z
M 2275 2050 
L 2275 3075 
L 1350 3075 
L 1350 2050 
L 2275 2050 
z
M 2275 3475 
L 2275 4500 
L 1350 4500 
L 1350 3475 
L 2275 3475 
z
M 3800 2175 
Q 3900 1750 4050 1475 
Q 4225 1175 4450 925 
Q 4925 1550 5050 2175 
L 3950 2175 
L 3800 2175 
z
" transform="scale(0.015625)"/>
       <path id="SimHei-7968" d="M 825 2800 
Q 850 3175 850 3500 
Q 850 3850 825 4225 
L 2275 4225 
L 2275 4700 
L 1375 4700 
Q 775 4700 475 4675 
L 475 5100 
Q 850 5075 1425 5075 
L 4900 5075 
Q 5350 5075 5925 5100 
L 5925 4675 
Q 5350 4700 4900 4700 
L 4025 4700 
L 4025 4225 
L 5550 4225 
Q 5525 3850 5525 3500 
Q 5525 3175 5550 2800 
L 825 2800 
z
M 300 1500 
Q 575 1475 925 1475 
L 5325 1475 
Q 5675 1475 6150 1500 
L 6150 1075 
Q 5675 1100 5325 1100 
L 3475 1100 
L 3475 -50 
Q 3475 -375 3212 -500 
Q 2950 -625 2550 -675 
Q 2500 -375 2325 -100 
Q 2700 -125 2837 -100 
Q 2975 -75 2975 100 
L 2975 1100 
L 925 1100 
Q 575 1100 300 1075 
L 300 1500 
z
M 4600 2325 
Q 5025 2325 5450 2350 
L 5450 1925 
Q 5000 1950 4625 1950 
L 1725 1950 
Q 1325 1950 925 1925 
L 925 2350 
Q 1325 2325 1750 2325 
L 4600 2325 
z
M 4550 775 
Q 5575 250 5975 25 
Q 5750 -175 5625 -425 
Q 5200 -100 4250 350 
Q 4450 525 4550 775 
z
M 400 -25 
Q 650 75 1012 262 
Q 1375 450 1725 850 
Q 1900 650 2175 450 
Q 2000 375 1650 125 
Q 1300 -125 800 -425 
Q 675 -200 400 -25 
z
M 5050 3200 
L 5050 3800 
L 4025 3800 
L 4025 3200 
L 5050 3200 
z
M 2275 3200 
L 2275 3800 
L 1325 3800 
L 1325 3200 
L 2275 3200 
z
M 3550 3200 
L 3550 3800 
L 2725 3800 
L 2725 3200 
L 3550 3200 
z
M 3550 4225 
L 3550 4700 
L 2725 4700 
L 2725 4225 
L 3550 4225 
z
" transform="scale(0.015625)"/>
       <path id="SimHei-4ef7" d="M 2200 4975 
Q 2050 4725 1650 3775 
L 1650 450 
Q 1650 -225 1675 -650 
L 1175 -650 
Q 1175 -225 1200 450 
L 1200 2975 
Q 900 2425 650 2100 
Q 525 2275 225 2450 
Q 750 3025 1125 3800 
Q 1500 4575 1625 5175 
Q 1950 5025 2200 4975 
z
M 4175 4700 
Q 4850 3525 6150 2950 
Q 5925 2750 5775 2500 
Q 4725 3100 3950 4300 
Q 3300 3125 2250 2350 
Q 2125 2525 1900 2725 
Q 2825 3325 3250 4050 
Q 3675 4775 3750 5150 
Q 4150 4950 4325 4900 
L 4175 4700 
z
M 3475 2650 
Q 3400 2075 3325 1087 
Q 3250 100 2325 -675 
Q 2175 -450 1925 -300 
Q 2850 350 2912 1262 
Q 2975 2175 2950 2700 
Q 3275 2650 3475 2650 
z
M 5075 2700 
Q 5050 2150 5050 1725 
L 5050 150 
Q 5050 -225 5075 -650 
L 4550 -650 
Q 4575 -225 4575 175 
L 4575 1875 
Q 4575 2150 4550 2700 
L 5075 2700 
z
" transform="scale(0.015625)"/>
       <path id="SimHei-683c" d="M 4075 4875 
Q 3975 4750 3750 4350 
L 5625 4350 
Q 5450 3850 5212 3437 
Q 4975 3025 4650 2650 
Q 4950 2450 5412 2287 
Q 5875 2125 6150 2100 
Q 5975 1900 5875 1600 
Q 5550 1725 5125 1912 
Q 4700 2100 4300 2400 
Q 3925 2125 3537 1937 
Q 3150 1750 2575 1550 
Q 2475 1775 2300 1925 
Q 2825 2050 3262 2250 
Q 3700 2450 3975 2675 
Q 3625 3050 3325 3575 
Q 3175 3350 2875 2950 
Q 2700 3100 2475 3200 
Q 2825 3550 3112 4075 
Q 3400 4600 3550 5100 
Q 3775 4950 4075 4875 
z
M 5575 1650 
Q 5550 1350 5550 575 
Q 5550 -200 5575 -575 
L 5050 -575 
L 5050 -175 
L 3500 -175 
L 3500 -600 
L 2975 -600 
Q 3000 -200 3000 550 
Q 3000 1325 2975 1650 
L 5575 1650 
z
M 1850 5100 
Q 1825 4775 1825 4475 
L 1825 3825 
Q 2300 3825 2525 3850 
L 2525 3400 
Q 2300 3425 1825 3425 
L 1825 2725 
Q 1950 2800 2125 2950 
Q 2350 2600 2550 2200 
Q 2350 2075 2175 1950 
Q 1975 2375 1825 2625 
L 1825 275 
Q 1825 -275 1850 -625 
L 1350 -625 
Q 1375 -275 1375 275 
L 1375 2425 
Q 1150 1850 625 850 
Q 475 1025 250 1150 
Q 650 1775 900 2375 
Q 1150 2975 1250 3425 
Q 900 3425 475 3400 
L 475 3850 
Q 925 3825 1375 3825 
L 1375 4475 
Q 1375 4750 1350 5100 
L 1850 5100 
z
M 5050 200 
L 5050 1275 
L 3500 1275 
L 3500 200 
L 5050 200 
z
M 4300 2925 
Q 4675 3300 4975 3975 
L 3550 3975 
Q 3850 3350 4300 2925 
z
" transform="scale(0.015625)"/>
       <path id="SimHei-53" d="M 2900 1325 
Q 2900 750 2537 412 
Q 2175 75 1550 75 
Q 925 75 575 425 
Q 225 775 225 1300 
L 225 1475 
L 800 1475 
L 800 1325 
Q 800 950 1025 750 
Q 1250 550 1550 550 
Q 1950 550 2137 762 
Q 2325 975 2325 1275 
Q 2325 1525 2100 1737 
Q 1875 1950 1450 2125 
Q 850 2350 587 2625 
Q 325 2900 325 3275 
Q 325 3800 687 4125 
Q 1050 4450 1550 4450 
Q 2200 4450 2487 4062 
Q 2775 3675 2775 3225 
L 2200 3225 
Q 2225 3500 2050 3725 
Q 1875 3950 1550 3950 
Q 1250 3950 1075 3787 
Q 900 3625 900 3350 
Q 900 3125 1037 2962 
Q 1175 2800 1750 2575 
Q 2300 2350 2600 2037 
Q 2900 1725 2900 1325 
z
" transform="scale(0.015625)"/>
       <path id="SimHei-74" d="M 2750 200 
Q 2625 150 2462 112 
Q 2300 75 2025 75 
Q 1575 75 1300 325 
Q 1025 575 1025 1025 
L 1025 2525 
L 175 2525 
L 175 2925 
L 1025 2925 
L 1025 3900 
L 1525 3900 
L 1525 2925 
L 2550 2925 
L 2550 2525 
L 1525 2525 
L 1525 1000 
Q 1525 800 1625 662 
Q 1725 525 2000 525 
Q 2275 525 2450 575 
Q 2625 625 2750 700 
L 2750 200 
z
" transform="scale(0.015625)"/>
       <path id="SimHei-6f" d="M 2925 1525 
Q 2925 875 2525 475 
Q 2125 75 1575 75 
Q 1025 75 625 475 
Q 225 875 225 1525 
Q 225 2175 625 2575 
Q 1025 2975 1575 2975 
Q 2125 2975 2525 2575 
Q 2925 2175 2925 1525 
z
M 2375 1525 
Q 2375 2025 2125 2275 
Q 1875 2525 1575 2525 
Q 1275 2525 1025 2275 
Q 775 2025 775 1525 
Q 775 1025 1025 775 
Q 1275 525 1575 525 
Q 1875 525 2125 775 
Q 2375 1025 2375 1525 
z
" transform="scale(0.015625)"/>
       <path id="SimHei-63" d="M 2850 1250 
Q 2850 725 2487 400 
Q 2125 75 1575 75 
Q 1025 75 625 462 
Q 225 850 225 1525 
Q 225 2200 625 2587 
Q 1025 2975 1575 2975 
Q 2125 2975 2450 2687 
Q 2775 2400 2775 2000 
L 2225 2000 
Q 2200 2300 2012 2412 
Q 1825 2525 1575 2525 
Q 1275 2525 1025 2287 
Q 775 2050 775 1525 
Q 775 1000 1025 762 
Q 1275 525 1575 525 
Q 1900 525 2100 700 
Q 2300 875 2300 1250 
L 2850 1250 
z
" transform="scale(0.015625)"/>
       <path id="SimHei-6b" d="M 2925 125 
L 2350 125 
L 1450 1650 
L 875 1100 
L 875 125 
L 375 125 
L 375 4400 
L 875 4400 
L 875 1675 
L 2125 2925 
L 2750 2925 
L 1775 1975 
L 2925 125 
z
" transform="scale(0.015625)"/>
       <path id="SimHei-50" d="M 2950 3100 
Q 2950 2500 2600 2150 
Q 2250 1800 1625 1800 
L 900 1800 
L 900 125 
L 325 125 
L 325 4400 
L 1625 4400 
Q 2250 4400 2600 4050 
Q 2950 3700 2950 3100 
z
M 2375 3100 
Q 2375 3575 2150 3750 
Q 1925 3925 1475 3925 
L 900 3925 
L 900 2275 
L 1475 2275 
Q 1925 2275 2150 2450 
Q 2375 2625 2375 3100 
z
" transform="scale(0.015625)"/>
       <path id="SimHei-72" d="M 2500 2425 
Q 2025 2500 1700 2287 
Q 1375 2075 1150 1550 
L 1150 125 
L 650 125 
L 650 2925 
L 1150 2925 
L 1150 2200 
Q 1375 2600 1712 2787 
Q 2050 2975 2500 2975 
L 2500 2425 
z
" transform="scale(0.015625)"/>
       <path id="SimHei-24" d="M 2725 1325 
Q 2725 675 2400 375 
Q 2075 75 1725 75 
L 1725 -550 
L 1375 -550 
L 1375 75 
Q 950 75 637 425 
Q 325 775 325 1500 
L 900 1500 
Q 900 875 1075 712 
Q 1250 550 1375 550 
L 1375 2175 
Q 775 2500 600 2762 
Q 425 3025 425 3375 
Q 425 3825 687 4112 
Q 950 4400 1375 4450 
L 1375 4925 
L 1725 4925 
L 1725 4450 
Q 2150 4450 2412 4112 
Q 2675 3775 2675 3275 
L 2125 3275 
Q 2125 3650 1987 3812 
Q 1850 3975 1725 3975 
L 1725 2575 
Q 2125 2375 2425 2075 
Q 2725 1775 2725 1325 
z
M 1375 2775 
L 1375 3975 
Q 1225 3975 1087 3837 
Q 950 3700 950 3425 
Q 950 3250 1025 3087 
Q 1100 2925 1375 2775 
z
M 2175 1200 
Q 2175 1475 2050 1650 
Q 1925 1825 1725 1975 
L 1725 550 
Q 1875 575 2025 700 
Q 2175 825 2175 1200 
z
" transform="scale(0.015625)"/>
      </defs>
      <use xlink:href="#SimHei-80a1"/>
      <use xlink:href="#SimHei-7968" x="100"/>
      <use xlink:href="#SimHei-4ef7" x="200"/>
      <use xlink:href="#SimHei-683c" x="300"/>
      <use xlink:href="#SimHei-20" x="400"/>
      <use xlink:href="#SimHei-53" x="450"/>
      <use xlink:href="#SimHei-74" x="500"/>
      <use xlink:href="#SimHei-6f" x="550"/>
      <use xlink:href="#SimHei-63" x="600"/>
      <use xlink:href="#SimHei-6b" x="650"/>
      <use xlink:href="#SimHei-20" x="700"/>
      <use xlink:href="#SimHei-50" x="750"/>
      <use xlink:href="#SimHei-72" x="800"/>
      <use xlink:href="#SimHei-69" x="850"/>
      <use xlink:href="#SimHei-63" x="900"/>
      <use xlink:href="#SimHei-65" x="950"/>
      <use xlink:href="#SimHei-20" x="1000"/>
      <use xlink:href="#SimHei-28" x="1050"/>
      <use xlink:href="#SimHei-24" x="1100"/>
      <use xlink:href="#SimHei-29" x="1150"/>
     </g>
    </g>
   </g>
   <g id="line2d_12">
    <path d="M 73.832727 180.975345 
L 74.482036 184.213782 
L 75.131345 188.936955 
L 75.780655 188.671702 
L 76.429964 193.214252 
L 77.079273 191.735747 
L 77.728582 192.010384 
L 78.377891 193.31664 
L 79.0272 198.278013 
L 79.676509 201.431045 
L 80.325818 197.301552 
L 80.975127 194.563191 
L 81.624436 199.907187 
L 82.273745 199.364167 
L 82.923055 195.256564 
L 83.572364 204.382692 
L 84.221673 201.412308 
L 84.870982 205.034669 
L 85.520291 201.915381 
L 86.1696 206.087885 
L 87.468218 224.8519 
L 88.117527 224.589034 
L 88.766836 223.169211 
L 89.416145 228.112833 
L 90.065455 224.621844 
L 90.714764 233.704866 
L 91.364073 234.066104 
L 92.013382 240.686359 
L 92.662691 244.249747 
L 93.312 243.990633 
L 93.961309 248.69425 
L 94.610618 250.796497 
L 95.259927 245.295402 
L 95.909236 248.449094 
L 96.558545 243.880621 
L 97.207855 250.056382 
L 97.857164 247.160105 
L 98.506473 239.27949 
L 99.155782 252.791215 
L 99.805091 257.147597 
L 100.4544 253.992921 
L 101.103709 255.102908 
L 101.753018 253.073967 
L 102.402327 256.375769 
L 103.051636 255.902409 
L 103.700945 256.753449 
L 104.350255 250.369542 
L 104.999564 248.978701 
L 105.648873 247.13313 
L 106.298182 249.384736 
L 107.5968 254.414993 
L 108.246109 252.258644 
L 108.895418 254.560037 
L 109.544727 252.975927 
L 110.194036 241.630345 
L 110.843345 236.868173 
L 111.492655 238.650444 
L 112.141964 232.083775 
L 112.791273 234.314598 
L 113.440582 245.456401 
L 114.089891 250.967301 
L 114.7392 261.194348 
L 115.388509 263.115965 
L 116.037818 263.015277 
L 116.687127 253.850707 
L 117.336436 252.063495 
L 117.985745 253.261251 
L 118.635055 248.727144 
L 119.284364 260.814744 
L 119.933673 259.526712 
L 120.582982 255.312628 
L 121.232291 263.395606 
L 121.8816 257.143053 
L 122.530909 255.292597 
L 123.180218 257.562848 
L 123.829527 254.103624 
L 124.478836 241.69044 
L 125.128145 240.696233 
L 125.777455 239.339287 
L 126.426764 241.850473 
L 127.076073 246.496312 
L 127.725382 241.95712 
L 128.374691 246.637068 
L 129.024 246.245838 
L 129.673309 248.857045 
L 130.322618 246.238609 
L 130.971927 244.41458 
L 131.621236 238.742667 
L 132.270545 241.53077 
L 132.919855 243.006094 
L 133.569164 248.356696 
L 134.218473 250.785511 
L 134.867782 248.722925 
L 135.517091 244.584699 
L 136.1664 249.625895 
L 136.815709 244.872026 
L 137.465018 237.461168 
L 138.114327 235.201046 
L 138.763636 224.941178 
L 139.412945 229.171246 
L 140.062255 235.975393 
L 140.711564 245.699112 
L 141.360873 237.520696 
L 142.010182 233.943479 
L 142.659491 234.247343 
L 143.3088 232.71684 
L 143.958109 238.869545 
L 144.607418 225.499367 
L 145.906036 224.194926 
L 146.555345 220.227382 
L 147.204655 217.597852 
L 147.853964 216.373946 
L 148.503273 220.695228 
L 149.152582 218.117855 
L 149.801891 207.829403 
L 150.4512 200.474403 
L 151.100509 191.764939 
L 151.749818 194.559599 
L 152.399127 199.969466 
L 153.048436 200.657104 
L 153.697745 200.352473 
L 154.347055 194.370863 
L 154.996364 203.623049 
L 155.645673 195.261466 
L 156.294982 196.125247 
L 156.944291 198.458875 
L 157.5936 203.99174 
L 158.242909 213.038335 
L 158.892218 208.538313 
L 159.541527 208.137506 
L 160.840145 222.269127 
L 161.489455 224.10476 
L 162.138764 214.98073 
L 162.788073 216.399836 
L 163.437382 224.617059 
L 164.736 227.451357 
L 165.385309 242.194411 
L 166.034618 242.491225 
L 166.683927 243.753673 
L 167.333236 239.947726 
L 167.982545 229.840049 
L 168.631855 223.681462 
L 169.281164 225.151395 
L 169.930473 231.200433 
L 170.579782 217.132662 
L 171.229091 216.808933 
L 171.8784 216.732786 
L 172.527709 216.864671 
L 173.177018 215.781802 
L 173.826327 216.570976 
L 175.124945 222.696521 
L 175.774255 222.875573 
L 176.423564 225.84631 
L 177.072873 229.74322 
L 177.722182 229.161399 
L 178.371491 230.555281 
L 179.0208 222.333412 
L 179.670109 236.825453 
L 180.968727 224.046552 
L 181.618036 235.381142 
L 182.916655 239.285064 
L 183.565964 246.9795 
L 184.215273 251.231586 
L 184.864582 257.302764 
L 185.513891 247.723638 
L 186.1632 242.60857 
L 186.812509 235.657367 
L 187.461818 231.712207 
L 188.111127 237.884388 
L 188.760436 240.751779 
L 189.409745 238.076518 
L 190.059055 244.757517 
L 190.708364 240.859773 
L 191.357673 242.173558 
L 192.006982 244.222589 
L 192.656291 240.335988 
L 193.3056 237.907337 
L 193.954909 239.880628 
L 194.604218 233.542927 
L 195.253527 239.45277 
L 196.552145 232.843335 
L 197.201455 234.535531 
L 197.850764 232.752661 
L 198.500073 239.592116 
L 199.149382 234.540743 
L 199.798691 235.551547 
L 200.448 238.409113 
L 201.097309 232.674501 
L 201.746618 236.524932 
L 203.045236 252.734175 
L 203.694545 249.421304 
L 204.343855 256.421019 
L 204.993164 246.828097 
L 205.642473 258.209368 
L 206.291782 248.93536 
L 206.941091 247.781792 
L 207.5904 248.310493 
L 208.239709 251.289399 
L 208.889018 249.107444 
L 209.538327 249.313181 
L 210.187636 243.281767 
L 210.836945 242.65732 
L 211.486255 241.835666 
L 212.135564 243.823423 
L 212.784873 244.134727 
L 213.434182 242.452069 
L 214.083491 251.801036 
L 214.7328 259.171153 
L 215.382109 255.107956 
L 216.031418 254.173887 
L 216.680727 255.179668 
L 217.330036 255.078895 
L 217.979345 253.178772 
L 218.628655 256.129473 
L 219.277964 260.384227 
L 219.927273 259.313601 
L 220.576582 264.662065 
L 221.225891 262.430273 
L 221.8752 271.737776 
L 222.524509 266.111697 
L 223.173818 263.528151 
L 223.823127 262.128515 
L 224.472436 256.756444 
L 225.121745 247.651805 
L 225.771055 242.106554 
L 226.420364 252.17005 
L 227.069673 259.165106 
L 227.718982 262.580798 
L 228.368291 262.438166 
L 229.0176 259.608283 
L 229.666909 263.575702 
L 230.316218 262.554706 
L 230.965527 266.684153 
L 231.614836 270.027134 
L 232.264145 277.71692 
L 232.913455 282.763953 
L 233.562764 290.153199 
L 234.212073 295.488 
L 234.861382 289.728063 
L 235.510691 294.918136 
L 236.16 280.527708 
L 236.809309 277.83089 
L 237.458618 276.820448 
L 238.107927 281.512827 
L 238.757236 277.684447 
L 239.406545 280.831283 
L 240.055855 280.164293 
L 240.705164 266.169094 
L 241.354473 266.694224 
L 242.003782 260.411498 
L 242.653091 264.255549 
L 243.3024 264.44682 
L 243.951709 254.766395 
L 244.601018 258.193832 
L 245.250327 248.28573 
L 245.899636 244.416667 
L 246.548945 247.491501 
L 247.198255 244.034321 
L 247.847564 238.717663 
L 248.496873 235.318419 
L 249.146182 243.902357 
L 249.795491 247.877393 
L 250.4448 249.230502 
L 251.094109 249.637407 
L 251.743418 246.244382 
L 252.392727 245.272945 
L 253.042036 252.572864 
L 253.691345 250.494439 
L 254.989964 244.09635 
L 255.639273 238.188053 
L 256.288582 233.629255 
L 256.937891 231.119058 
L 257.5872 231.502633 
L 258.236509 240.582598 
L 258.885818 238.234007 
L 259.535127 237.098642 
L 260.184436 235.614003 
L 261.483055 248.503403 
L 262.132364 242.746138 
L 262.781673 242.962374 
L 263.430982 239.236818 
L 264.7296 238.919343 
L 265.378909 233.790032 
L 266.028218 236.611091 
L 266.677527 236.085628 
L 267.976145 240.988003 
L 268.625455 242.678153 
L 269.274764 241.463815 
L 269.924073 244.080988 
L 270.573382 237.216153 
L 271.222691 242.106698 
L 271.872 243.128268 
L 272.521309 245.532143 
L 273.170618 237.621957 
L 273.819927 236.547453 
L 274.469236 230.906674 
L 275.118545 239.027778 
L 275.767855 237.567896 
L 276.417164 232.704557 
L 277.066473 232.254735 
L 277.715782 226.43008 
L 278.365091 229.257938 
L 279.0144 221.553467 
L 279.663709 208.986094 
L 280.313018 210.969621 
L 280.962327 213.405047 
L 282.260945 196.824801 
L 282.910255 199.683117 
L 283.559564 201.98015 
L 284.208873 203.52058 
L 284.858182 210.87028 
L 286.806109 225.578914 
L 287.455418 225.768525 
L 288.104727 224.488145 
L 288.754036 216.012033 
L 289.403345 221.469729 
L 290.052655 216.08874 
L 290.701964 217.258551 
L 291.351273 217.528954 
L 292.000582 213.839923 
L 292.649891 219.9775 
L 293.2992 217.886983 
L 293.948509 216.97704 
L 294.597818 214.28496 
L 295.247127 212.704163 
L 295.896436 199.281788 
L 297.195055 205.670916 
L 299.142982 215.598458 
L 299.792291 209.098469 
L 300.4416 201.333006 
L 301.090909 204.453102 
L 301.740218 209.003335 
L 302.389527 206.42625 
L 303.038836 209.445085 
L 303.688145 205.98504 
L 304.337455 204.875722 
L 304.986764 213.161832 
L 306.285382 194.88458 
L 306.934691 198.234509 
L 307.584 200.353954 
L 308.882618 196.962843 
L 309.531927 193.362783 
L 310.181236 182.373609 
L 310.830545 183.340926 
L 311.479855 187.704973 
L 312.129164 195.245289 
L 312.778473 199.24106 
L 313.427782 199.422155 
L 314.077091 189.611856 
L 314.7264 192.441479 
L 315.375709 191.218098 
L 316.025018 191.307877 
L 316.674327 184.811295 
L 317.323636 170.997328 
L 318.622255 176.575041 
L 319.271564 170.866933 
L 319.920873 167.139241 
L 320.570182 157.043857 
L 321.219491 153.8517 
L 321.8688 155.81584 
L 322.518109 152.586911 
L 323.167418 146.525968 
L 323.816727 142.040643 
L 324.466036 139.267531 
L 325.764655 127.044165 
L 326.413964 119.488325 
L 327.063273 115.942026 
L 327.712582 116.85561 
L 328.361891 116.053571 
L 329.0112 109.457955 
L 329.660509 113.923893 
L 330.309818 111.908469 
L 330.959127 114.058732 
L 331.608436 113.901592 
L 332.257745 106.912687 
L 332.907055 105.868007 
L 333.556364 105.614153 
L 334.205673 113.04807 
L 335.504291 105.439866 
L 336.1536 93.614014 
L 336.802909 95.296543 
L 338.101527 92.735211 
L 338.750836 84.111757 
L 339.400145 84.632708 
L 340.049455 83.107383 
L 340.698764 79.784199 
L 341.348073 78.764064 
L 341.997382 81.20458 
L 342.646691 80.143549 
L 343.296 74.274333 
L 343.945309 79.885978 
L 344.594618 79.159073 
L 345.243927 82.98642 
L 345.893236 76.453465 
L 346.542545 84.780262 
L 347.191855 87.835717 
L 347.841164 85.773615 
L 348.490473 77.215374 
L 349.139782 77.574811 
L 349.789091 80.609917 
L 350.4384 70.326206 
L 351.087709 78.242055 
L 351.737018 90.262255 
L 352.386327 87.856831 
L 353.035636 90.601407 
L 353.684945 96.184175 
L 354.334255 92.311807 
L 354.983564 90.979023 
L 355.632873 94.062668 
L 356.282182 101.061701 
L 356.931491 96.292243 
L 357.5808 92.737792 
L 358.230109 93.279956 
L 358.879418 83.184957 
L 359.528727 89.034783 
L 360.178036 97.374362 
L 360.827345 101.156812 
L 361.476655 101.406017 
L 362.125964 100.075755 
L 362.775273 101.394518 
L 363.424582 99.469939 
L 364.073891 106.311722 
L 364.7232 98.419103 
L 365.372509 98.868198 
L 366.021818 92.760284 
L 366.671127 90.886709 
L 367.320436 88.389779 
L 367.969745 85.275036 
L 368.619055 82.82755 
L 369.268364 79.313981 
L 369.917673 72.047911 
L 370.566982 70.97359 
L 371.216291 67.097683 
L 371.8656 67.588241 
L 372.514909 59.715561 
L 373.164218 63.41319 
L 373.813527 53.568 
L 374.462836 53.787531 
L 375.112145 61.609141 
L 375.761455 60.908833 
L 376.410764 64.631934 
L 377.060073 60.036393 
L 377.709382 63.604089 
L 378.358691 66.043237 
L 379.008 76.372778 
L 379.657309 78.845399 
L 380.306618 92.096005 
L 380.955927 100.754718 
L 382.254545 92.302034 
L 382.903855 89.976188 
L 383.553164 95.262351 
L 384.202473 95.523174 
L 384.851782 95.542868 
L 385.501091 101.875293 
L 386.1504 93.656675 
L 386.799709 88.860404 
L 387.449018 90.068347 
L 388.098327 89.92137 
L 388.747636 88.782205 
L 389.396945 99.943745 
L 390.046255 101.294988 
L 390.695564 105.023188 
L 391.344873 110.498738 
L 391.994182 112.035427 
L 392.643491 102.208025 
L 393.2928 98.704733 
L 393.942109 101.827194 
L 394.591418 98.697059 
L 395.240727 91.047211 
L 395.890036 85.992521 
L 396.539345 85.66654 
L 397.188655 89.203146 
L 397.837964 85.386173 
L 398.487273 83.235108 
L 398.487273 83.235108 
" clip-path="url(#pd6222efae0)" style="fill: none; stroke: #1f77b4; stroke-width: 1.5; stroke-linecap: square"/>
   </g>
   <g id="patch_3">
    <path d="M 57.6 307.584 
L 57.6 41.472 
" style="fill: none; stroke: #000000; stroke-width: 0.8; stroke-linejoin: miter; stroke-linecap: square"/>
   </g>
   <g id="patch_4">
    <path d="M 414.72 307.584 
L 414.72 41.472 
" style="fill: none; stroke: #000000; stroke-width: 0.8; stroke-linejoin: miter; stroke-linecap: square"/>
   </g>
   <g id="patch_5">
    <path d="M 57.6 307.584 
L 414.72 307.584 
" style="fill: none; stroke: #000000; stroke-width: 0.8; stroke-linejoin: miter; stroke-linecap: square"/>
   </g>
   <g id="patch_6">
    <path d="M 57.6 41.472 
L 414.72 41.472 
" style="fill: none; stroke: #000000; stroke-width: 0.8; stroke-linejoin: miter; stroke-linecap: square"/>
   </g>
  </g>
 </g>
 <defs>
  <clipPath id="pd6222efae0">
   <rect x="57.6" y="41.472" width="357.12" height="266.112"/>
  </clipPath>
 </defs>
</svg>
