<?xml version="1.0" encoding="utf-8" standalone="no"?>
<!DOCTYPE svg PUBLIC "-//W3C//DTD SVG 1.1//EN"
  "http://www.w3.org/Graphics/SVG/1.1/DTD/svg11.dtd">
<svg xmlns:xlink="http://www.w3.org/1999/xlink" width="460.8pt" height="345.6pt" viewBox="0 0 460.8 345.6" xmlns="http://www.w3.org/2000/svg" version="1.1">
 <metadata>
  <rdf:RDF xmlns:dc="http://purl.org/dc/elements/1.1/" xmlns:cc="http://creativecommons.org/ns#" xmlns:rdf="http://www.w3.org/1999/02/22-rdf-syntax-ns#">
   <cc:Work>
    <dc:type rdf:resource="http://purl.org/dc/dcmitype/StillImage"/>
    <dc:date>2025-09-26T00:55:36.296107</dc:date>
    <dc:format>image/svg+xml</dc:format>
    <dc:creator>
     <cc:Agent>
      <dc:title>Matplotlib v3.9.1, https://matplotlib.org/</dc:title>
     </cc:Agent>
    </dc:creator>
   </cc:Work>
  </rdf:RDF>
 </metadata>
 <defs>
  <style type="text/css">*{stroke-linejoin: round; stroke-linecap: butt}</style>
 </defs>
 <g id="figure_1">
  <g id="patch_1">
   <path d="M 0 345.6 
L 460.8 345.6 
L 460.8 0 
L 0 0 
z
" style="fill: #ffffff"/>
  </g>
  <g id="axes_1">
   <g id="patch_2">
    <path d="M 57.6 307.584 
L 414.72 307.584 
L 414.72 41.472 
L 57.6 41.472 
z
" style="fill: #ffffff"/>
   </g>
   <g id="matplotlib.axis_1">
    <g id="xtick_1">
     <g id="line2d_1">
      <defs>
       <path id="m78aec3c290" d="M 0 0 
L 0 3.5 
" style="stroke: #000000; stroke-width: 0.8"/>
      </defs>
      <g>
       <use xlink:href="#m78aec3c290" x="73.832727" y="307.584" style="stroke: #000000; stroke-width: 0.8"/>
      </g>
     </g>
     <g id="text_1">
      <!-- 0 -->
      <g transform="translate(71.332727 321.459) scale(0.1 -0.1)">
       <defs>
        <path id="SimHei-30" d="M 225 2537 
Q 250 3200 412 3587 
Q 575 3975 875 4225 
Q 1175 4475 1612 4475 
Q 2050 4475 2375 4112 
Q 2700 3750 2800 3200 
Q 2900 2650 2862 1937 
Q 2825 1225 2612 775 
Q 2400 325 1975 150 
Q 1550 -25 1125 187 
Q 700 400 525 750 
Q 350 1100 275 1487 
Q 200 1875 225 2537 
z
M 750 2687 
Q 675 2000 800 1462 
Q 925 925 1212 700 
Q 1500 475 1800 612 
Q 2100 750 2237 1162 
Q 2375 1575 2375 2062 
Q 2375 2550 2337 2950 
Q 2300 3350 2112 3675 
Q 1925 4000 1612 4012 
Q 1300 4025 1062 3700 
Q 825 3375 750 2687 
z
" transform="scale(0.015625)"/>
       </defs>
       <use xlink:href="#SimHei-30"/>
      </g>
     </g>
    </g>
    <g id="xtick_2">
     <g id="line2d_2">
      <g>
       <use xlink:href="#m78aec3c290" x="138.763636" y="307.584" style="stroke: #000000; stroke-width: 0.8"/>
      </g>
     </g>
     <g id="text_2">
      <!-- 100 -->
      <g transform="translate(131.263636 321.459) scale(0.1 -0.1)">
       <defs>
        <path id="SimHei-31" d="M 1400 3600 
Q 1075 3275 575 2975 
L 575 3450 
Q 1200 3875 1600 4450 
L 1900 4450 
L 1900 150 
L 1400 150 
L 1400 3600 
z
" transform="scale(0.015625)"/>
       </defs>
       <use xlink:href="#SimHei-31"/>
       <use xlink:href="#SimHei-30" x="50"/>
       <use xlink:href="#SimHei-30" x="100"/>
      </g>
     </g>
    </g>
    <g id="xtick_3">
     <g id="line2d_3">
      <g>
       <use xlink:href="#m78aec3c290" x="203.694545" y="307.584" style="stroke: #000000; stroke-width: 0.8"/>
      </g>
     </g>
     <g id="text_3">
      <!-- 200 -->
      <g transform="translate(196.194545 321.459) scale(0.1 -0.1)">
       <defs>
        <path id="SimHei-32" d="M 300 250 
Q 325 625 650 925 
Q 975 1225 1475 1862 
Q 1975 2500 2125 2850 
Q 2275 3200 2237 3450 
Q 2200 3700 2000 3862 
Q 1800 4025 1537 4000 
Q 1275 3975 1037 3800 
Q 800 3625 675 3275 
L 200 3350 
Q 400 3925 712 4187 
Q 1025 4450 1450 4475 
Q 1700 4500 1900 4462 
Q 2100 4425 2312 4287 
Q 2525 4150 2662 3875 
Q 2800 3600 2762 3212 
Q 2725 2825 2375 2287 
Q 2025 1750 1025 600 
L 2825 600 
L 2825 150 
L 300 150 
L 300 250 
z
" transform="scale(0.015625)"/>
       </defs>
       <use xlink:href="#SimHei-32"/>
       <use xlink:href="#SimHei-30" x="50"/>
       <use xlink:href="#SimHei-30" x="100"/>
      </g>
     </g>
    </g>
    <g id="xtick_4">
     <g id="line2d_4">
      <g>
       <use xlink:href="#m78aec3c290" x="268.625455" y="307.584" style="stroke: #000000; stroke-width: 0.8"/>
      </g>
     </g>
     <g id="text_4">
      <!-- 300 -->
      <g transform="translate(261.125455 321.459) scale(0.1 -0.1)">
       <defs>
        <path id="SimHei-33" d="M 250 1225 
L 700 1300 
Q 800 975 1025 762 
Q 1250 550 1587 562 
Q 1925 575 2125 837 
Q 2325 1100 2300 1437 
Q 2275 1775 2037 1962 
Q 1800 2150 1275 2225 
L 1275 2550 
Q 1800 2600 2037 2825 
Q 2275 3050 2250 3412 
Q 2225 3775 1925 3937 
Q 1625 4100 1287 3975 
Q 950 3850 750 3275 
L 300 3350 
Q 450 3800 712 4100 
Q 975 4400 1425 4450 
Q 1875 4500 2212 4337 
Q 2550 4175 2687 3837 
Q 2825 3500 2725 3100 
Q 2625 2700 2150 2400 
Q 2500 2250 2687 1950 
Q 2875 1650 2812 1162 
Q 2750 675 2375 375 
Q 2000 75 1525 87 
Q 1050 100 700 387 
Q 350 675 250 1225 
z
" transform="scale(0.015625)"/>
       </defs>
       <use xlink:href="#SimHei-33"/>
       <use xlink:href="#SimHei-30" x="50"/>
       <use xlink:href="#SimHei-30" x="100"/>
      </g>
     </g>
    </g>
    <g id="xtick_5">
     <g id="line2d_5">
      <g>
       <use xlink:href="#m78aec3c290" x="333.556364" y="307.584" style="stroke: #000000; stroke-width: 0.8"/>
      </g>
     </g>
     <g id="text_5">
      <!-- 400 -->
      <g transform="translate(326.056364 321.459) scale(0.1 -0.1)">
       <defs>
        <path id="SimHei-34" d="M 2000 1100 
L 75 1100 
L 75 1525 
L 2100 4450 
L 2475 4450 
L 2475 1525 
L 3075 1525 
L 3075 1100 
L 2475 1100 
L 2475 150 
L 2000 150 
L 2000 1100 
z
M 2000 1525 
L 2000 3500 
L 600 1525 
L 2000 1525 
z
" transform="scale(0.015625)"/>
       </defs>
       <use xlink:href="#SimHei-34"/>
       <use xlink:href="#SimHei-30" x="50"/>
       <use xlink:href="#SimHei-30" x="100"/>
      </g>
     </g>
    </g>
    <g id="xtick_6">
     <g id="line2d_6">
      <g>
       <use xlink:href="#m78aec3c290" x="398.487273" y="307.584" style="stroke: #000000; stroke-width: 0.8"/>
      </g>
     </g>
     <g id="text_6">
      <!-- 500 -->
      <g transform="translate(390.987273 321.459) scale(0.1 -0.1)">
       <defs>
        <path id="SimHei-35" d="M 550 1325 
Q 725 650 1150 575 
Q 1575 500 1837 662 
Q 2100 825 2212 1087 
Q 2325 1350 2312 1675 
Q 2300 2000 2137 2225 
Q 1975 2450 1725 2525 
Q 1475 2600 1162 2525 
Q 850 2450 650 2175 
L 225 2225 
Q 275 2375 700 4375 
L 2675 4375 
L 2675 3925 
L 1075 3925 
Q 950 3250 825 2850 
Q 1200 3025 1525 3012 
Q 1850 3000 2150 2862 
Q 2450 2725 2587 2487 
Q 2725 2250 2787 2012 
Q 2850 1775 2837 1500 
Q 2825 1225 2725 937 
Q 2625 650 2425 462 
Q 2225 275 1937 162 
Q 1650 50 1275 75 
Q 900 100 562 350 
Q 225 600 100 1200 
L 550 1325 
z
" transform="scale(0.015625)"/>
       </defs>
       <use xlink:href="#SimHei-35"/>
       <use xlink:href="#SimHei-30" x="50"/>
       <use xlink:href="#SimHei-30" x="100"/>
      </g>
     </g>
    </g>
    <g id="text_7">
     <!-- Elapsed Time (min) -->
     <g transform="translate(191.16 334.5215) scale(0.1 -0.1)">
      <defs>
       <path id="SimHei-45" d="M 2900 125 
L 350 125 
L 350 4400 
L 2775 4400 
L 2775 3925 
L 925 3925 
L 925 2600 
L 2625 2600 
L 2625 2125 
L 925 2125 
L 925 600 
L 2900 600 
L 2900 125 
z
" transform="scale(0.015625)"/>
       <path id="SimHei-6c" d="M 1825 125 
L 1325 125 
L 1325 4400 
L 1825 4400 
L 1825 125 
z
" transform="scale(0.015625)"/>
       <path id="SimHei-61" d="M 2875 125 
L 2275 125 
Q 2225 175 2200 262 
Q 2175 350 2175 475 
Q 2000 275 1750 175 
Q 1500 75 1225 75 
Q 825 75 550 275 
Q 275 475 275 850 
Q 275 1225 525 1450 
Q 775 1675 1300 1750 
Q 1650 1800 1912 1875 
Q 2175 1950 2175 2075 
Q 2175 2225 2062 2375 
Q 1950 2525 1575 2525 
Q 1275 2525 1137 2412 
Q 1000 2300 950 2100 
L 400 2100 
Q 450 2500 762 2737 
Q 1075 2975 1575 2975 
Q 2125 2975 2400 2725 
Q 2675 2475 2675 2025 
L 2675 650 
Q 2675 500 2725 375 
Q 2775 250 2875 125 
z
M 2175 1050 
L 2175 1550 
Q 2025 1500 1887 1462 
Q 1750 1425 1425 1375 
Q 1050 1325 937 1200 
Q 825 1075 825 900 
Q 825 750 937 637 
Q 1050 525 1275 525 
Q 1500 525 1762 650 
Q 2025 775 2175 1050 
z
" transform="scale(0.015625)"/>
       <path id="SimHei-70" d="M 2825 1525 
Q 2825 800 2475 425 
Q 2125 50 1625 50 
Q 1350 50 1150 162 
Q 950 275 800 500 
L 800 -800 
L 300 -800 
L 300 2925 
L 800 2925 
L 800 2550 
Q 950 2775 1150 2875 
Q 1350 2975 1625 2975 
Q 2125 2975 2475 2612 
Q 2825 2250 2825 1525 
z
M 2275 1525 
Q 2275 2000 2087 2262 
Q 1900 2525 1525 2525 
Q 1225 2525 1012 2262 
Q 800 2000 800 1525 
Q 800 1050 1012 775 
Q 1225 500 1525 500 
Q 1900 500 2087 775 
Q 2275 1050 2275 1525 
z
" transform="scale(0.015625)"/>
       <path id="SimHei-73" d="M 2750 900 
Q 2750 500 2437 287 
Q 2125 75 1650 75 
Q 1050 75 725 312 
Q 400 550 400 1000 
L 900 1000 
Q 900 700 1112 600 
Q 1325 500 1625 500 
Q 1925 500 2075 612 
Q 2225 725 2225 900 
Q 2225 1025 2100 1150 
Q 1975 1275 1475 1350 
Q 900 1425 687 1637 
Q 475 1850 475 2200 
Q 475 2500 762 2737 
Q 1050 2975 1600 2975 
Q 2100 2975 2387 2750 
Q 2675 2525 2675 2150 
L 2175 2150 
Q 2175 2375 2012 2462 
Q 1850 2550 1600 2550 
Q 1275 2550 1137 2437 
Q 1000 2325 1000 2175 
Q 1000 2000 1125 1900 
Q 1250 1800 1650 1750 
Q 2300 1650 2525 1437 
Q 2750 1225 2750 900 
z
" transform="scale(0.015625)"/>
       <path id="SimHei-65" d="M 2850 1075 
Q 2800 625 2450 350 
Q 2100 75 1625 75 
Q 1025 75 637 462 
Q 250 850 250 1525 
Q 250 2200 637 2587 
Q 1025 2975 1625 2975 
Q 2150 2975 2487 2637 
Q 2825 2300 2825 1525 
L 800 1525 
Q 800 975 1037 750 
Q 1275 525 1625 525 
Q 1900 525 2075 662 
Q 2250 800 2300 1075 
L 2850 1075 
z
M 2250 1925 
Q 2200 2275 2025 2412 
Q 1850 2550 1575 2550 
Q 1325 2550 1125 2412 
Q 925 2275 825 1925 
L 2250 1925 
z
" transform="scale(0.015625)"/>
       <path id="SimHei-64" d="M 2750 125 
L 2250 125 
L 2250 500 
Q 2100 275 1900 175 
Q 1700 75 1425 75 
Q 925 75 575 437 
Q 225 800 225 1525 
Q 225 2250 575 2625 
Q 925 3000 1425 3000 
Q 1700 3000 1900 2887 
Q 2100 2775 2250 2550 
L 2250 4400 
L 2750 4400 
L 2750 125 
z
M 2250 1525 
Q 2250 2000 2037 2275 
Q 1825 2550 1525 2550 
Q 1150 2550 962 2275 
Q 775 2000 775 1525 
Q 775 1050 962 787 
Q 1150 525 1525 525 
Q 1825 525 2037 787 
Q 2250 1050 2250 1525 
z
" transform="scale(0.015625)"/>
       <path id="SimHei-20" transform="scale(0.015625)"/>
       <path id="SimHei-54" d="M 2850 3925 
L 1850 3925 
L 1850 125 
L 1275 125 
L 1275 3925 
L 275 3925 
L 275 4400 
L 2850 4400 
L 2850 3925 
z
" transform="scale(0.015625)"/>
       <path id="SimHei-69" d="M 1800 3725 
L 1300 3725 
L 1300 4375 
L 1800 4375 
L 1800 3725 
z
M 1800 125 
L 1300 125 
L 1300 2925 
L 1800 2925 
L 1800 125 
z
" transform="scale(0.015625)"/>
       <path id="SimHei-6d" d="M 3050 125 
L 2550 125 
L 2550 2150 
Q 2550 2300 2500 2400 
Q 2450 2500 2300 2500 
Q 2125 2500 1975 2312 
Q 1825 2125 1825 1825 
L 1825 125 
L 1325 125 
L 1325 2150 
Q 1325 2300 1275 2400 
Q 1225 2500 1075 2500 
Q 900 2500 750 2312 
Q 600 2125 600 1825 
L 600 125 
L 100 125 
L 100 2925 
L 600 2925 
L 600 2550 
Q 725 2750 900 2862 
Q 1075 2975 1275 2975 
Q 1475 2975 1612 2862 
Q 1750 2750 1800 2550 
Q 1925 2750 2087 2862 
Q 2250 2975 2450 2975 
Q 2750 2975 2900 2812 
Q 3050 2650 3050 2350 
L 3050 125 
z
" transform="scale(0.015625)"/>
       <path id="SimHei-28" d="M 2975 -200 
L 2700 -475 
Q 2075 125 1762 775 
Q 1450 1425 1450 2250 
Q 1450 3075 1762 3725 
Q 2075 4375 2700 5000 
L 2975 4725 
Q 2400 4175 2112 3587 
Q 1825 3000 1825 2250 
Q 1825 1500 2112 912 
Q 2400 325 2975 -200 
z
" transform="scale(0.015625)"/>
       <path id="SimHei-6e" d="M 2800 125 
L 2300 125 
L 2300 1925 
Q 2300 2225 2150 2400 
Q 2000 2575 1750 2575 
Q 1425 2575 1137 2237 
Q 850 1900 850 1400 
L 850 125 
L 350 125 
L 350 2925 
L 850 2925 
L 850 2400 
Q 1050 2675 1287 2825 
Q 1525 2975 1900 2975 
Q 2350 2975 2575 2725 
Q 2800 2475 2800 2100 
L 2800 125 
z
" transform="scale(0.015625)"/>
       <path id="SimHei-29" d="M 1675 2250 
Q 1675 1425 1362 775 
Q 1050 125 425 -475 
L 150 -200 
Q 725 325 1012 912 
Q 1300 1500 1300 2250 
Q 1300 3000 1012 3587 
Q 725 4175 150 4725 
L 425 5000 
Q 1050 4375 1362 3725 
Q 1675 3075 1675 2250 
z
" transform="scale(0.015625)"/>
      </defs>
      <use xlink:href="#SimHei-45"/>
      <use xlink:href="#SimHei-6c" x="50"/>
      <use xlink:href="#SimHei-61" x="100"/>
      <use xlink:href="#SimHei-70" x="150"/>
      <use xlink:href="#SimHei-73" x="200"/>
      <use xlink:href="#SimHei-65" x="250"/>
      <use xlink:href="#SimHei-64" x="300"/>
      <use xlink:href="#SimHei-20" x="350"/>
      <use xlink:href="#SimHei-54" x="400"/>
      <use xlink:href="#SimHei-69" x="450"/>
      <use xlink:href="#SimHei-6d" x="500"/>
      <use xlink:href="#SimHei-65" x="550"/>
      <use xlink:href="#SimHei-20" x="600"/>
      <use xlink:href="#SimHei-28" x="650"/>
      <use xlink:href="#SimHei-6d" x="700"/>
      <use xlink:href="#SimHei-69" x="750"/>
      <use xlink:href="#SimHei-6e" x="800"/>
      <use xlink:href="#SimHei-29" x="850"/>
     </g>
    </g>
   </g>
   <g id="matplotlib.axis_2">
    <g id="ytick_1">
     <g id="line2d_7">
      <defs>
       <path id="m32b71b2578" d="M 0 0 
L -3.5 0 
" style="stroke: #000000; stroke-width: 0.8"/>
      </defs>
      <g>
       <use xlink:href="#m32b71b2578" x="57.6" y="265.604396" style="stroke: #000000; stroke-width: 0.8"/>
      </g>
     </g>
     <g id="text_8">
      <!-- 20 -->
      <g transform="translate(40.6 269.041896) scale(0.1 -0.1)">
       <use xlink:href="#SimHei-32"/>
       <use xlink:href="#SimHei-30" x="50"/>
      </g>
     </g>
    </g>
    <g id="ytick_2">
     <g id="line2d_8">
      <g>
       <use xlink:href="#m32b71b2578" x="57.6" y="216.642154" style="stroke: #000000; stroke-width: 0.8"/>
      </g>
     </g>
     <g id="text_9">
      <!-- 25 -->
      <g transform="translate(40.6 220.079654) scale(0.1 -0.1)">
       <use xlink:href="#SimHei-32"/>
       <use xlink:href="#SimHei-35" x="50"/>
      </g>
     </g>
    </g>
    <g id="ytick_3">
     <g id="line2d_9">
      <g>
       <use xlink:href="#m32b71b2578" x="57.6" y="167.679913" style="stroke: #000000; stroke-width: 0.8"/>
      </g>
     </g>
     <g id="text_10">
      <!-- 30 -->
      <g transform="translate(40.6 171.117413) scale(0.1 -0.1)">
       <use xlink:href="#SimHei-33"/>
       <use xlink:href="#SimHei-30" x="50"/>
      </g>
     </g>
    </g>
    <g id="ytick_4">
     <g id="line2d_10">
      <g>
       <use xlink:href="#m32b71b2578" x="57.6" y="118.717672" style="stroke: #000000; stroke-width: 0.8"/>
      </g>
     </g>
     <g id="text_11">
      <!-- 35 -->
      <g transform="translate(40.6 122.155172) scale(0.1 -0.1)">
       <use xlink:href="#SimHei-33"/>
       <use xlink:href="#SimHei-35" x="50"/>
      </g>
     </g>
    </g>
    <g id="ytick_5">
     <g id="line2d_11">
      <g>
       <use xlink:href="#m32b71b2578" x="57.6" y="69.755431" style="stroke: #000000; stroke-width: 0.8"/>
      </g>
     </g>
     <g id="text_12">
      <!-- 40 -->
      <g transform="translate(40.6 73.192931) scale(0.1 -0.1)">
       <use xlink:href="#SimHei-34"/>
       <use xlink:href="#SimHei-30" x="50"/>
      </g>
     </g>
    </g>
    <g id="text_13">
     <!-- Stock Price ($) -->
     <g transform="translate(35.35 212.028) rotate(-90) scale(0.1 -0.1)">
      <defs>
       <path id="SimHei-53" d="M 2900 1325 
Q 2900 750 2537 412 
Q 2175 75 1550 75 
Q 925 75 575 425 
Q 225 775 225 1300 
L 225 1475 
L 800 1475 
L 800 1325 
Q 800 950 1025 750 
Q 1250 550 1550 550 
Q 1950 550 2137 762 
Q 2325 975 2325 1275 
Q 2325 1525 2100 1737 
Q 1875 1950 1450 2125 
Q 850 2350 587 2625 
Q 325 2900 325 3275 
Q 325 3800 687 4125 
Q 1050 4450 1550 4450 
Q 2200 4450 2487 4062 
Q 2775 3675 2775 3225 
L 2200 3225 
Q 2225 3500 2050 3725 
Q 1875 3950 1550 3950 
Q 1250 3950 1075 3787 
Q 900 3625 900 3350 
Q 900 3125 1037 2962 
Q 1175 2800 1750 2575 
Q 2300 2350 2600 2037 
Q 2900 1725 2900 1325 
z
" transform="scale(0.015625)"/>
       <path id="SimHei-74" d="M 2750 200 
Q 2625 150 2462 112 
Q 2300 75 2025 75 
Q 1575 75 1300 325 
Q 1025 575 1025 1025 
L 1025 2525 
L 175 2525 
L 175 2925 
L 1025 2925 
L 1025 3900 
L 1525 3900 
L 1525 2925 
L 2550 2925 
L 2550 2525 
L 1525 2525 
L 1525 1000 
Q 1525 800 1625 662 
Q 1725 525 2000 525 
Q 2275 525 2450 575 
Q 2625 625 2750 700 
L 2750 200 
z
" transform="scale(0.015625)"/>
       <path id="SimHei-6f" d="M 2925 1525 
Q 2925 875 2525 475 
Q 2125 75 1575 75 
Q 1025 75 625 475 
Q 225 875 225 1525 
Q 225 2175 625 2575 
Q 1025 2975 1575 2975 
Q 2125 2975 2525 2575 
Q 2925 2175 2925 1525 
z
M 2375 1525 
Q 2375 2025 2125 2275 
Q 1875 2525 1575 2525 
Q 1275 2525 1025 2275 
Q 775 2025 775 1525 
Q 775 1025 1025 775 
Q 1275 525 1575 525 
Q 1875 525 2125 775 
Q 2375 1025 2375 1525 
z
" transform="scale(0.015625)"/>
       <path id="SimHei-63" d="M 2850 1250 
Q 2850 725 2487 400 
Q 2125 75 1575 75 
Q 1025 75 625 462 
Q 225 850 225 1525 
Q 225 2200 625 2587 
Q 1025 2975 1575 2975 
Q 2125 2975 2450 2687 
Q 2775 2400 2775 2000 
L 2225 2000 
Q 2200 2300 2012 2412 
Q 1825 2525 1575 2525 
Q 1275 2525 1025 2287 
Q 775 2050 775 1525 
Q 775 1000 1025 762 
Q 1275 525 1575 525 
Q 1900 525 2100 700 
Q 2300 875 2300 1250 
L 2850 1250 
z
" transform="scale(0.015625)"/>
       <path id="SimHei-6b" d="M 2925 125 
L 2350 125 
L 1450 1650 
L 875 1100 
L 875 125 
L 375 125 
L 375 4400 
L 875 4400 
L 875 1675 
L 2125 2925 
L 2750 2925 
L 1775 1975 
L 2925 125 
z
" transform="scale(0.015625)"/>
       <path id="SimHei-50" d="M 2950 3100 
Q 2950 2500 2600 2150 
Q 2250 1800 1625 1800 
L 900 1800 
L 900 125 
L 325 125 
L 325 4400 
L 1625 4400 
Q 2250 4400 2600 4050 
Q 2950 3700 2950 3100 
z
M 2375 3100 
Q 2375 3575 2150 3750 
Q 1925 3925 1475 3925 
L 900 3925 
L 900 2275 
L 1475 2275 
Q 1925 2275 2150 2450 
Q 2375 2625 2375 3100 
z
" transform="scale(0.015625)"/>
       <path id="SimHei-72" d="M 2500 2425 
Q 2025 2500 1700 2287 
Q 1375 2075 1150 1550 
L 1150 125 
L 650 125 
L 650 2925 
L 1150 2925 
L 1150 2200 
Q 1375 2600 1712 2787 
Q 2050 2975 2500 2975 
L 2500 2425 
z
" transform="scale(0.015625)"/>
       <path id="SimHei-24" d="M 2725 1325 
Q 2725 675 2400 375 
Q 2075 75 1725 75 
L 1725 -550 
L 1375 -550 
L 1375 75 
Q 950 75 637 425 
Q 325 775 325 1500 
L 900 1500 
Q 900 875 1075 712 
Q 1250 550 1375 550 
L 1375 2175 
Q 775 2500 600 2762 
Q 425 3025 425 3375 
Q 425 3825 687 4112 
Q 950 4400 1375 4450 
L 1375 4925 
L 1725 4925 
L 1725 4450 
Q 2150 4450 2412 4112 
Q 2675 3775 2675 3275 
L 2125 3275 
Q 2125 3650 1987 3812 
Q 1850 3975 1725 3975 
L 1725 2575 
Q 2125 2375 2425 2075 
Q 2725 1775 2725 1325 
z
M 1375 2775 
L 1375 3975 
Q 1225 3975 1087 3837 
Q 950 3700 950 3425 
Q 950 3250 1025 3087 
Q 1100 2925 1375 2775 
z
M 2175 1200 
Q 2175 1475 2050 1650 
Q 1925 1825 1725 1975 
L 1725 550 
Q 1875 575 2025 700 
Q 2175 825 2175 1200 
z
" transform="scale(0.015625)"/>
      </defs>
      <use xlink:href="#SimHei-53"/>
      <use xlink:href="#SimHei-74" x="50"/>
      <use xlink:href="#SimHei-6f" x="100"/>
      <use xlink:href="#SimHei-63" x="150"/>
      <use xlink:href="#SimHei-6b" x="200"/>
      <use xlink:href="#SimHei-20" x="250"/>
      <use xlink:href="#SimHei-50" x="300"/>
      <use xlink:href="#SimHei-72" x="350"/>
      <use xlink:href="#SimHei-69" x="400"/>
      <use xlink:href="#SimHei-63" x="450"/>
      <use xlink:href="#SimHei-65" x="500"/>
      <use xlink:href="#SimHei-20" x="550"/>
      <use xlink:href="#SimHei-28" x="600"/>
      <use xlink:href="#SimHei-24" x="650"/>
      <use xlink:href="#SimHei-29" x="700"/>
     </g>
    </g>
   </g>
   <g id="line2d_12">
    <path d="M 73.832727 167.679913 
L 74.482036 170.580407 
L 75.131345 174.810699 
L 75.780655 174.573126 
L 76.429964 178.641644 
L 77.079273 177.317427 
L 77.728582 177.563404 
L 78.377891 178.733347 
L 79.0272 183.176982 
L 79.676509 186.000984 
L 80.325818 182.302419 
L 80.975127 179.849817 
L 81.624436 184.636146 
L 82.273745 184.149793 
L 82.923055 180.470833 
L 83.572364 188.644616 
L 84.221673 185.984202 
L 84.870982 189.228557 
L 85.520291 186.434778 
L 86.1696 190.171866 
L 87.468218 206.977785 
L 88.117527 206.742351 
L 88.766836 205.470691 
L 89.416145 209.898428 
L 90.065455 206.771736 
L 90.714764 214.906911 
L 91.364073 215.230452 
L 92.013382 221.159859 
L 92.662691 224.351395 
L 93.312 224.11932 
L 93.961309 228.332097 
L 94.610618 230.214967 
L 95.259927 225.287932 
L 95.909236 228.112524 
L 96.558545 224.020788 
L 97.207855 229.552086 
L 97.857164 226.958046 
L 98.506473 219.899803 
L 99.155782 232.001528 
L 99.805091 235.903306 
L 100.4544 233.077832 
L 101.103709 234.071987 
L 101.753018 232.254774 
L 102.402327 235.212021 
L 103.051636 234.788058 
L 103.700945 235.550288 
L 104.350255 229.832566 
L 104.999564 228.586864 
L 105.648873 226.933886 
L 106.298182 228.950528 
L 107.5968 233.455859 
L 108.246109 231.524533 
L 108.895418 233.585767 
L 109.544727 232.166965 
L 110.194036 222.005337 
L 110.843345 217.740115 
L 111.492655 219.3364 
L 112.141964 213.454987 
L 112.791273 215.453016 
L 113.440582 225.43213 
L 114.089891 230.367947 
L 114.7392 239.527763 
L 115.388509 241.248852 
L 116.037818 241.158672 
L 116.687127 232.950459 
L 117.336436 231.349749 
L 117.985745 232.422514 
L 118.635055 228.361559 
L 119.284364 239.187773 
L 119.933673 238.034151 
L 120.582982 234.259822 
L 121.232291 241.499312 
L 121.8816 235.899236 
L 122.530909 234.241882 
L 123.180218 236.275224 
L 123.829527 233.176982 
L 124.478836 222.059161 
L 125.128145 221.168703 
L 125.777455 219.95336 
L 126.426764 222.202494 
L 127.076073 226.363522 
L 127.725382 222.298012 
L 128.374691 226.48959 
L 129.024 226.139186 
L 129.673309 228.477904 
L 130.322618 226.132711 
L 130.971927 224.499027 
L 131.621236 219.418999 
L 132.270545 221.916153 
L 132.919855 223.237521 
L 133.569164 228.029768 
L 134.218473 230.205127 
L 134.867782 228.357779 
L 135.517091 224.651393 
L 136.1664 229.166522 
L 136.815709 224.908736 
L 137.465018 218.271229 
L 138.114327 216.246959 
L 138.763636 207.057746 
L 139.412945 210.846392 
L 140.062255 216.9405 
L 140.711564 225.649513 
L 141.360873 218.324545 
L 142.010182 215.120624 
L 142.659491 215.392779 
L 143.3088 214.02199 
L 143.958109 219.532636 
L 144.607418 207.557687 
L 145.906036 206.389369 
L 146.555345 202.835853 
L 147.204655 200.480724 
L 147.853964 199.384538 
L 148.503273 203.254878 
L 149.152582 200.946463 
L 149.801891 191.73165 
L 150.4512 185.144171 
L 151.100509 177.343573 
L 151.749818 179.846599 
L 152.399127 184.691926 
L 153.048436 185.307807 
L 153.697745 185.034965 
L 154.347055 179.677559 
L 154.996364 187.964245 
L 155.645673 180.475224 
L 156.294982 181.248866 
L 156.944291 183.338971 
L 157.5936 188.294461 
L 158.242909 196.39701 
L 158.892218 192.366582 
L 159.541527 192.007601 
L 160.840145 204.664535 
L 161.489455 206.308612 
L 162.138764 198.136708 
L 162.788073 199.407726 
L 163.437382 206.767451 
L 164.736 209.30598 
L 165.385309 222.510541 
L 166.034618 222.776381 
L 166.683927 223.907088 
L 167.333236 220.498306 
L 167.982545 211.445402 
L 168.631855 205.929487 
L 169.281164 207.246027 
L 169.930473 212.663825 
L 170.579782 200.064079 
L 171.229091 199.774132 
L 171.8784 199.705931 
L 172.527709 199.824053 
L 173.177018 198.854186 
L 173.826327 199.561007 
L 175.124945 205.047329 
L 175.774255 205.207696 
L 176.423564 207.868425 
L 177.072873 211.358678 
L 177.722182 210.837572 
L 178.371491 212.085997 
L 179.0208 204.722111 
L 179.670109 217.701853 
L 180.968727 206.256478 
L 181.618036 216.408262 
L 182.916655 219.904795 
L 183.565964 226.796287 
L 184.215273 230.604652 
L 184.864582 236.042281 
L 185.513891 227.462772 
L 186.1632 222.881481 
L 186.812509 216.655662 
L 187.461818 213.122194 
L 188.111127 218.650284 
L 188.760436 221.218453 
L 189.409745 218.822365 
L 190.059055 224.806177 
L 190.708364 221.315177 
L 191.357673 222.491864 
L 192.006982 224.327071 
L 192.656291 220.846051 
L 193.3056 218.670839 
L 193.954909 220.43821 
L 194.604218 214.761871 
L 195.253527 220.055 
L 196.552145 214.135284 
L 197.201455 215.650893 
L 197.850764 214.054073 
L 198.500073 220.179805 
L 199.149382 215.655562 
L 199.798691 216.560884 
L 200.448 219.120253 
L 201.097309 213.984069 
L 201.746618 217.432693 
L 203.045236 231.950441 
L 203.694545 228.98328 
L 204.343855 235.252549 
L 204.993164 226.660684 
L 205.642473 236.854277 
L 206.291782 228.548046 
L 206.941091 227.514857 
L 207.5904 227.988386 
L 208.239709 230.656432 
L 208.889018 228.702172 
L 209.538327 228.88644 
L 210.187636 223.484427 
L 210.836945 222.925143 
L 211.486255 222.189232 
L 212.135564 223.969559 
L 212.784873 224.248377 
L 213.434182 222.741311 
L 214.083491 231.114679 
L 214.7328 237.715697 
L 215.382109 234.076509 
L 216.031418 233.239913 
L 216.680727 234.140737 
L 217.330036 234.05048 
L 217.979345 232.348643 
L 218.628655 234.991427 
L 219.277964 238.802181 
L 219.927273 237.843279 
L 220.576582 242.633611 
L 221.225891 240.634714 
L 221.8752 248.970945 
L 222.524509 243.931969 
L 223.173818 241.618025 
L 223.823127 240.364447 
L 224.472436 235.552971 
L 225.121745 227.398435 
L 225.771055 222.431852 
L 226.420364 231.445185 
L 227.069673 237.71028 
L 227.718982 240.769532 
L 228.368291 240.641784 
L 229.0176 238.10721 
L 229.666909 241.660614 
L 230.316218 240.746162 
L 230.965527 244.444686 
L 231.614836 247.438815 
L 232.264145 254.326143 
L 232.913455 258.8465 
L 233.562764 265.46465 
L 234.212073 270.242745 
L 234.861382 265.083878 
L 235.510691 269.732348 
L 236.16 256.843615 
L 236.809309 254.42822 
L 237.458618 253.523221 
L 238.107927 257.725933 
L 238.757236 254.297059 
L 239.406545 257.115511 
L 240.055855 256.518124 
L 240.705164 243.983376 
L 241.354473 244.453707 
L 242.003782 238.826607 
L 242.653091 242.269516 
L 243.3024 242.440828 
L 243.951709 233.770591 
L 244.601018 236.840362 
L 245.250327 227.966208 
L 245.899636 224.500896 
L 246.548945 227.254859 
L 247.198255 224.158449 
L 247.847564 219.396605 
L 248.496873 216.352084 
L 249.146182 224.040256 
L 249.795491 227.600482 
L 250.4448 228.812389 
L 251.094109 229.176832 
L 251.743418 226.137882 
L 252.392727 225.267818 
L 253.042036 231.805963 
L 253.691345 229.94443 
L 254.989964 224.214005 
L 255.639273 218.922261 
L 256.288582 214.839191 
L 256.937891 212.590942 
L 257.5872 212.934489 
L 258.236509 221.066926 
L 258.885818 218.963419 
L 259.535127 217.946534 
L 260.184436 216.616823 
L 261.483055 228.161165 
L 262.132364 223.004693 
L 262.781673 223.198364 
L 263.430982 219.861584 
L 264.7296 219.577238 
L 265.378909 214.98319 
L 266.028218 217.509861 
L 266.677527 217.039232 
L 267.976145 221.430026 
L 268.625455 222.943802 
L 269.274764 221.856185 
L 269.924073 224.200246 
L 270.573382 218.051782 
L 271.222691 222.43198 
L 271.872 223.346946 
L 272.521309 225.499968 
L 273.170618 218.41524 
L 273.819927 217.452863 
L 274.469236 212.400721 
L 275.118545 219.674358 
L 275.767855 218.36682 
L 276.417164 214.010988 
L 277.066473 213.608107 
L 277.715782 208.391276 
L 278.365091 210.924037 
L 279.0144 204.023556 
L 279.663709 192.767635 
L 280.313018 194.544174 
L 280.962327 196.725454 
L 282.260945 181.875419 
L 282.910255 184.435459 
L 283.559564 186.492788 
L 284.208873 187.872468 
L 284.858182 194.455199 
L 286.806109 207.628932 
L 287.455418 207.798757 
L 288.104727 206.65199 
L 288.754036 199.060392 
L 289.403345 203.948557 
L 290.052655 199.129094 
L 290.701964 200.176831 
L 291.351273 200.419016 
L 292.000582 197.114949 
L 292.649891 202.612048 
L 293.2992 200.739684 
L 293.948509 199.924696 
L 294.597818 197.513545 
L 295.247127 196.09771 
L 295.896436 184.07601 
L 297.195055 189.798408 
L 299.142982 198.689975 
L 299.792291 192.868283 
L 300.4416 185.913176 
L 301.090909 188.707678 
L 301.740218 192.783077 
L 302.389527 190.474921 
L 303.038836 193.178729 
L 303.688145 190.079753 
L 304.337455 189.086196 
L 304.986764 196.507619 
L 306.285382 180.137667 
L 306.934691 183.138018 
L 307.584 185.036292 
L 308.882618 181.999055 
L 309.531927 178.774675 
L 310.181236 168.932263 
L 310.830545 169.798636 
L 311.479855 173.707279 
L 312.129164 180.460735 
L 312.778473 184.039532 
L 313.427782 184.201729 
L 314.077091 175.415172 
L 314.7264 177.949512 
L 315.375709 176.853797 
L 316.025018 176.934207 
L 316.674327 171.115567 
L 317.323636 158.743139 
L 318.622255 163.738797 
L 319.271564 158.626351 
L 319.920873 155.287658 
L 320.570182 146.245765 
L 321.219491 143.386722 
L 321.8688 145.145896 
L 322.518109 142.253918 
L 323.167418 136.825457 
L 323.816727 132.808192 
L 324.466036 130.324465 
L 325.764655 119.376653 
L 326.413964 112.609293 
L 327.063273 109.433064 
L 327.712582 110.251311 
L 328.361891 109.532968 
L 329.0112 103.62563 
L 329.660509 107.62553 
L 330.309818 105.820423 
L 330.959127 107.746298 
L 331.608436 107.605557 
L 332.257745 101.34597 
L 332.907055 100.410306 
L 333.556364 100.182942 
L 334.205673 106.841103 
L 335.504291 100.026843 
L 336.1536 89.435063 
L 336.802909 90.942014 
L 338.101527 88.647966 
L 338.750836 80.924402 
L 339.400145 81.39099 
L 340.049455 80.024838 
L 340.698764 77.04844 
L 341.348073 76.13476 
L 341.997382 78.320599 
L 342.646691 77.370291 
L 343.296 72.11355 
L 343.945309 77.139599 
L 344.594618 76.488549 
L 345.243927 79.916498 
L 345.893236 74.065282 
L 346.542545 81.523146 
L 347.191855 84.259753 
L 347.841164 82.412839 
L 348.490473 74.747682 
L 349.139782 75.06961 
L 349.789091 77.787992 
L 350.4384 68.577425 
L 351.087709 75.667226 
L 351.737018 86.433072 
L 352.386327 84.278663 
L 353.035636 86.736833 
L 353.684945 91.737018 
L 354.334255 88.268746 
L 354.983564 87.075043 
L 355.632873 89.836898 
L 356.282182 96.105556 
L 356.931491 91.833809 
L 357.5808 88.650278 
L 358.230109 89.135866 
L 358.879418 80.094317 
L 359.528727 85.333692 
L 360.178036 92.803005 
L 360.827345 96.190742 
L 361.476655 96.413941 
L 362.125964 95.222497 
L 362.775273 96.403643 
L 363.424582 94.6799 
L 364.073891 100.807718 
L 364.7232 93.738723 
L 365.372509 94.140953 
L 366.021818 88.670423 
L 366.671127 86.992363 
L 367.320436 84.755996 
L 367.969745 81.966288 
L 368.619055 79.774207 
L 369.268364 76.627292 
L 369.917673 70.119463 
L 370.566982 69.157252 
L 371.216291 65.68581 
L 371.8656 66.125176 
L 372.514909 59.07404 
L 373.164218 62.385808 
L 373.813527 53.568 
L 374.462836 53.764622 
L 375.112145 60.770018 
L 375.761455 60.14279 
L 376.410764 63.477372 
L 377.060073 59.361392 
L 377.709382 62.556786 
L 378.358691 64.7414 
L 379.008 73.993015 
L 379.657309 76.207608 
L 380.306618 88.075464 
L 380.955927 95.830607 
L 382.254545 88.259993 
L 382.903855 86.176858 
L 383.553164 90.911389 
L 384.202473 91.144995 
L 384.851782 91.162634 
L 385.501091 96.834247 
L 386.1504 89.473272 
L 386.799709 85.177509 
L 387.449018 86.2594 
L 388.098327 86.12776 
L 388.747636 85.107472 
L 389.396945 95.104263 
L 390.046255 96.314499 
L 390.695564 99.653647 
L 391.344873 104.557803 
L 391.994182 105.934133 
L 392.643491 97.132257 
L 393.2928 93.994546 
L 393.942109 96.791167 
L 394.591418 93.987673 
L 395.240727 87.136115 
L 395.890036 82.608901 
L 396.539345 82.316938 
L 397.188655 85.484485 
L 397.837964 82.065827 
L 398.487273 80.139235 
L 398.487273 80.139235 
" clip-path="url(#p23f1489bfc)" style="fill: none; stroke: #1f77b4; stroke-width: 1.5; stroke-linecap: square"/>
   </g>
   <g id="line2d_13">
    <path d="M 73.832727 256.546877 
L 398.487273 112.137409 
L 398.487273 112.137409 
" clip-path="url(#p23f1489bfc)" style="fill: none; stroke: #ff7f0e; stroke-width: 1.5; stroke-linecap: square"/>
   </g>
   <g id="line2d_14">
    <path d="M 73.832727 217.605753 
L 398.487273 73.196286 
L 398.487273 73.196286 
" clip-path="url(#p23f1489bfc)" style="fill: none; stroke: #2ca02c; stroke-width: 1.5; stroke-linecap: square"/>
   </g>
   <g id="line2d_15">
    <path d="M 73.832727 295.488 
L 398.487273 151.078532 
L 398.487273 151.078532 
" clip-path="url(#p23f1489bfc)" style="fill: none; stroke: #d62728; stroke-width: 1.5; stroke-linecap: square"/>
   </g>
   <g id="patch_3">
    <path d="M 57.6 307.584 
L 57.6 41.472 
" style="fill: none; stroke: #000000; stroke-width: 0.8; stroke-linejoin: miter; stroke-linecap: square"/>
   </g>
   <g id="patch_4">
    <path d="M 414.72 307.584 
L 414.72 41.472 
" style="fill: none; stroke: #000000; stroke-width: 0.8; stroke-linejoin: miter; stroke-linecap: square"/>
   </g>
   <g id="patch_5">
    <path d="M 57.6 307.584 
L 414.72 307.584 
" style="fill: none; stroke: #000000; stroke-width: 0.8; stroke-linejoin: miter; stroke-linecap: square"/>
   </g>
   <g id="patch_6">
    <path d="M 57.6 41.472 
L 414.72 41.472 
" style="fill: none; stroke: #000000; stroke-width: 0.8; stroke-linejoin: miter; stroke-linecap: square"/>
   </g>
  </g>
 </g>
 <defs>
  <clipPath id="p23f1489bfc">
   <rect x="57.6" y="41.472" width="357.12" height="266.112"/>
  </clipPath>
 </defs>
</svg>
